<?xml version="1.0" standalone="no"?>
<!DOCTYPE svg PUBLIC "-//W3C//DTD SVG 1.1//EN" "http://www.w3.org/Graphics/SVG/1.1/DTD/svg11.dtd" >
<!--
2013-9-30: Created.
-->
<svg>
<metadata>
Created by iconfont
</metadata>
<defs>

<font id="iconfont" horiz-adv-x="1024" >
  <font-face
    font-family="iconfont"
    font-weight="500"
    font-stretch="normal"
    units-per-em="1024"
    ascent="896"
    descent="-128"
  />
    <missing-glyph />
    
    <glyph glyph-name="class" unicode="&#58961;" d="M882.709043 340.38361999999995L359.356484 340.38361999999995c-24.087605 0-43.615357 19.527752-43.615357 43.61331001s19.527752 43.61331001 43.615357 43.61330999l523.352559 0c24.087605 0 43.61331001-19.527752 43.61331-43.61330999S906.796648 340.38361999999995 882.709043 340.38361999999995zM882.709043 602.0614339900001L359.35443799 602.0614339900001c-24.087605 0-43.61331001 19.527752-43.61330999 43.61331001s19.52570599 43.61331001 43.61331001 43.61330999l523.35460599 0c24.087605 0 43.61331001-19.527752 43.61331001-43.61330999S906.796648 602.0614339900001 882.709043 602.0614339900001zM184.903244 78.71092198999997l-43.61331001 0c-24.087605 0-43.61331001 19.52570599-43.61330999 43.61331001 0 24.087605 19.52570599 43.61024 43.61330999 43.61024l43.61331001 0c24.087605 0 43.61331001-19.523659 43.61330999-43.61024C228.51655399 98.236628 208.990848 78.71092198999997 184.903244 78.71092198999997zM184.903244 340.388736l-43.61331001 0c-24.087605 0-43.61331001 19.52570599-43.61330999 43.61024 0 24.089651 19.52570599 43.61331001 43.61330999 43.61331001l43.61331001 0c24.087605 0 43.61331001-19.523659 43.61330999-43.61331001C228.51655399 359.913419 208.990848 340.388736 184.903244 340.388736zM184.903244 602.063481l-43.61331001 0c-24.087605 0-43.61331001 19.527752-43.61330999 43.61535699 0 24.08555799 19.52570599 43.61331001 43.61330999 43.61331001l43.61331001 0c24.087605 0 43.61331001-19.527752 43.61330999-43.61331001C228.51655399 621.591233 208.990848 602.063481 184.903244 602.063481zM359.356484 165.93242600999997l523.352559-2e-8c24.087605 0 43.61331001-19.52570599 43.61331-43.61024 0-24.087605-19.52570599-43.61331001-43.61331-43.61330999L359.356484 78.70887500000003c-24.087605 0-43.615357 19.52570599-43.615357 43.61331C315.742151 146.40671999999995 335.269903 165.93242600999997 359.356484 165.93242600999997z"  horiz-adv-x="1024" />

    
    <glyph glyph-name="menu-home" unicode="&#58905;" d="M986.681558 370.604922L593.370751 750.357945c-83.743286 91.241051-162.750711 0-162.750711 0L37.310256 384.169869c-29.843702-114.316605 81.372286-81.378425 81.372286-81.378425l325.502445 298.373575c75.656097 75.616188 135.622864 0 135.622864 0l339.066369-311.937498C1019.426333 268.99163999999996 986.681558 370.604922 986.681558 370.604922zM566.242903 519.7917090000001c0 0-60.786435 51.998281-108.49297 0L145.811412 234.97591799999998l0-230.560096c0 0 13.849426-20.37198 40.685631-27.128871 12.636808 1.802042 230.565213 0 230.565213 0L417.062256 126.47476200000006c0 0-1.947352 10.677177 13.557784 13.564947l162.750711 0c0 0 11.949146 8.768711 13.564947-13.564947l0-149.186787 217.001289 0c0 0 35.288714-4.278443 40.693818 27.128871L864.630804 234.97591799999998 566.242903 519.7917090000001z"  horiz-adv-x="1024" />

    
    <glyph glyph-name="more" unicode="&#58933;" d="M797.61227469 423.80245406c-1.40160938 1.40160938-2.86941469 2.69481281-4.38422719 3.89975625L433.69549062 789.09782344c-20.01682875 20.01586969-52.46970563 20.01586969-72.48557437 0-20.01586969-20.01682875-20.01586969-52.46874656 0-72.48557438l327.43080187-329.29481812L354.17788344 53.17214156c-20.01586969-20.01682875-20.01586969-52.46874656 0-72.48653437 20.01586969-20.01586969 52.46874656-20.01586969 72.48557437 0l366.56075157 366.24512625c1.5157725 1.2059025 2.98453687 2.49814594 4.38710531 3.90071531 10.06933312 10.06933312 15.06850313 23.28725156 15.00614625 36.48502312C812.68077875 400.5161625 807.68160781 413.73312094 797.61227469 423.80245406z"  horiz-adv-x="1024" />

    
    <glyph glyph-name="file" unicode="&#59121;" d="M865.99527083 594.9375q7.03125-7.03125 14.0625-18.084375l-237.065625 0 0 237.065625q11.053125-7.03125 18.084375-14.0625zM626.93277083 512.559375l273.20625 0 0-530.353125q0-20.08125-14.0625-34.14375t-34.14375-14.0625l-675 0q-20.08125 0-34.14375 14.0625t-14.0625 34.14375l0 803.559375q0 20.08125 14.0625 34.14375t34.14375 14.0625l401.79375 0 0-273.20625q0-20.08125 14.0625-34.14375t34.14375-14.0625zM707.28589583 142.94062499999995l0 32.146875q0 7.03125-4.528125 11.559375t-11.559375 4.528125l-353.559375 0q-7.03125 0-11.559375-4.528125t-4.528125-11.559375l0-32.146875q0-7.03125 4.528125-11.559375t11.559375-4.528125l353.559375 0q7.03125 0 11.559375 4.528125t4.528125 11.559375zM707.28589583 271.5l0 32.146875q0 7.03125-4.528125 11.559375t-11.559375 4.528125l-353.559375 0q-7.03125 0-11.559375-4.528125t-4.528125-11.559375l0-32.146875q0-7.03125 4.528125-11.559375t11.559375-4.528125l353.559375 0q7.03125 0 11.559375 4.528125t4.528125 11.559375zM707.28589583 400.059375l0 32.146875q0 7.03125-4.528125 11.559375t-11.559375 4.528125l-353.559375 0q-7.03125 0-11.559375-4.528125t-4.528125-11.559375l0-32.146875q0-7.03125 4.528125-11.559375t11.559375-4.528125l353.559375 0q7.03125 0 11.559375 4.528125t4.528125 11.559375z"  horiz-adv-x="1024" />

    
    <glyph glyph-name="download1" unicode="&#59079;" d="M768 64.00000001000001q0 14.857143-10.857143 25.714286t-25.714286 10.857143-25.714286-10.857143-10.85714301-25.714286 10.85714301-25.714286 25.714286-10.857143 25.714286 10.857143 10.857143 25.714286z m146.28571401 0q0 14.857143-10.85714301 25.714286t-25.714286 10.857143-25.714286-10.857143-10.857143-25.714286 10.857143-25.714286 25.714286-10.857143 25.714286 10.857143 10.85714299 25.714286z m73.14285699 128l0-182.857143q0-22.857143-16-38.857143t-38.857143-16l-841.142857 0q-22.857143 0-38.857143 16t-16 38.857143l0 182.857143q0 22.857143 16 38.857143t38.857143 16l265.714286 0 77.14285701-77.714286q33.142857-32 77.71428599-32t77.71428601 32l77.71428599 77.714286 265.142857 0q22.857143 0 38.857143-16t16-38.857143z m-185.714286 325.142857q9.71428601-23.428571-8-40l-256-256q-10.28571399-10.857143-25.714286-10.857143t-25.714286 10.857143l-256 256q-17.71428601 16.571429-8 40 9.71428601 22.28571399 33.714286 22.285714l146.285714 0 0 256q0 14.857143 10.857143 25.714286t25.71428601 10.857143l146.28571399 0q14.857143 0 25.71428601-10.857143t10.85714299-25.714286l0-256 146.285714 0q24 0 33.714286-22.285714z"  horiz-adv-x="1024" />

    
    <glyph glyph-name="upload1" unicode="&#59180;" d="M768 33.52380966999999q0 14.857143-10.857143 25.714286t-25.714286 10.857142-25.714285-10.857142-10.857143-25.714286 10.857143-25.714286 25.714285-10.857143 25.714286 10.857143 10.857143 25.714286z m146.285714 0q0 14.857143-10.857143 25.714286t-25.714285 10.857142-25.714286-10.857142-10.857143-25.714286 10.857143-25.714286 25.714286-10.857143 25.714285 10.857143 10.857143 25.714286z m73.142857 128v-182.857143q0-22.857143-16-38.857143t-38.857142-16H91.428571q-22.857143 0-38.857142 16t-16 38.857143v182.857143q0 22.857143 16 38.857143t38.857142 16h244q12-32 40.285715-52.571429t63.142857-20.571428h146.285714q34.857143 0 63.142857 20.571428t40.285715 52.571429h244q22.857143 0 38.857142-16t16-38.857143z m-185.714285 370.285714q-9.714286-22.857143-33.714286-22.857143h-146.285714v-256q0-14.857143-10.857143-25.714285t-25.714286-10.857143H438.857143q-14.857143 0-25.714286 10.857143t-10.857143 25.714285V508.95238067H256q-24 0-33.714286 22.857143-9.714286 22.285714 8 39.428572L486.285714 827.23809567q10.285714 10.857143 25.714286 10.857142t25.714286-10.857142l256-256q17.714286-17.142857 8-39.428572z"  horiz-adv-x="1024" />

    
    <glyph glyph-name="qr-code" unicode="&#59205;" d="M948.906667-35.84000000000003h92.16V-128h-92.16zM948.906667 336.21333300000003v-184.32H853.333333v184.32H576.853333V-128h92.16V244.05333299999995h92.16v-184.32h279.893334v276.48zM761.173333-35.84000000000003H853.333333V-128h-92.16zM187.733333 708.266667h92.16v-92.16H187.733333zM0 431.786667h464.213333V896H0v-464.213333zM92.16 803.84h279.893333v-279.893333H92.16V803.84zM187.733333 151.89333299999998h92.16v-92.16H187.733333zM0-128h464.213333V336.21333300000003H0V-128z m92.16 372.053333h279.893333v-279.893333H92.16v279.893333zM761.173333 708.266667H853.333333v-92.16h-92.16zM1041.066667 896H576.853333v-464.213333h464.213334V896z m-92.16-372.053333h-279.893334V803.84h279.893334v-279.893333z"  horiz-adv-x="1041" />

    
    <glyph glyph-name="person" unicode="&#58884;" d="M638.91669922 325.75927734000004c78.50654297 44.52011719 131.31826172 127.61894531 131.31826172 222.7913086 0 142.11738281-117.74179688 257.32441406-262.98808594 257.32441406-145.24189453 0-262.9828125-115.20703125-262.9828125-257.32441406 0-96.71923828 54.54492188-180.95976563 135.16611328-224.92089844-132.665625-51.59882812-226.45458984-178.3546875-226.45458984-326.54794922 0-19.29990234 15.98994141-34.94443359 35.71259765-34.94443359s35.70732422 15.64453125 35.70732422 34.94443359h0.00527344c0.19160156 155.37128906 128.97685547 281.27109375 287.81982422 281.27109375 157.06318359 0 284.72080078-123.10751953 287.73632812-276.08378906-0.24873047-1.56181641-0.39023438-3.36445313-0.39023437-5.19873047 0-19.28847656 15.98466797-34.93300781 35.70908203-34.93300781 19.72265625 0 35.71435547 15.64453125 35.71435547 34.94443359-0.00351562 150.27275391-96.44589844 278.5078125-232.07167969 328.67753906M507.24775391 360.17900391c-106.31953125 0-192.51210937 84.33632812-192.51210938 188.37158203s86.19257812 188.37158203 192.51210938 188.37158203c106.32392578 0 192.515625-84.33632812 192.515625-188.37158203 0.00087891-104.02910156-86.19082031-188.37158203-192.515625-188.37158203z"  horiz-adv-x="1024" />

    
    <glyph glyph-name="deal" unicode="&#58968;" d="M735.46666625 333.33333374999995c-112.53333375 0-204.26666625-91.2-204.26666625-204.26666719 0-112.53333375 91.2-204.26666625 204.26666625-204.26666625 112.53333375 0 204.26666625 91.2 204.26666719 204.26666625 0 113.06666625-91.73333344 204.26666625-204.26666719 204.26666719z m99.20000063-264.53333344h-134.40000001v154.66666594h47.46666657v-107.19999938h87.46666687v-47.46666656z m-339.73333313 60.79999969c0 75.73333313 35.73333375 144.53333344 91.7333325 188.26666687-3.19999969-1.60000031-6.93333375-2.66666625-10.66666594-2.66666718H317.33333375c-12.79999969 0-23.46666656 10.66666687-23.4666675 23.46666656s10.66666687 23.46666656 23.4666675 23.4666675h258.13333312c12.79999969 0 23.46666656-10.66666687 23.46666657-23.4666675 0-6.40000031-2.66666625-11.73333375-6.40000031-15.99999938 37.33333312 27.73333313 83.20000031 43.73333344 132.80000062 43.73333344 61.86666656 0 126.93333375-19.2 168.5333325-58.66666687V789.33333375c0 20.80000031-16.53333375 37.33333312-37.33333312 37.33333312H182.93333375c-20.80000031 0-37.33333312-16.53333375-37.33333406-37.33333312v-804.26666719c0-20.80000031 16.53333375-37.33333312 37.33333406-37.33333312h396.79999969c-53.86666687 42.13333313-84.79999969 107.73333375-84.79999969 181.86666656zM317.33333375 651.73333313h402.13333313c12.79999969 0 23.46666656-10.66666687 23.46666656-23.46666657s-10.66666687-23.46666656-23.46666656-23.46666656H317.33333375c-12.79999969 0-23.46666656 10.66666687-23.4666675 23.46666656s10.66666687 23.46666656 23.4666675 23.46666656z m0-145.06666688h402.13333313c12.79999969 0 23.46666656-10.66666687 23.46666656-23.46666656s-10.66666687-23.46666656-23.46666656-23.46666656H317.33333375c-12.79999969 0-23.46666656 10.66666687-23.4666675 23.46666656s10.66666687 23.46666656 23.4666675 23.46666656z m275.19999938-183.99999937l-6.39999938-4.8c2.66666625 1.06666687 4.8 2.66666625 6.39999937 4.8z"  horiz-adv-x="1024" />

    
    <glyph glyph-name="user" unicode="&#58885;" d="M512 654.49984a136.86101333 136.86101333 0 1 1 136.53333333-136.86101333A136.86101333 136.86101333 0 0 1 512 654.49984M512 848.21333333a464.21333333 464.21333333 0 1 1 464.21333333-464.21333333A464.21333333 464.21333333 0 0 1 512 848.21333333m239.53408-741.04832a42.32533333 42.32533333 0 0 0-20.58922667 17.09397334 219.32714667 219.32714667 0 0 1-437.72586666 0 23.97525333 23.97525333 0 0 0-20.58922667-17.09397334c-38.22933333-3.22218667-33.80565333 17.09397333-33.80565333 17.09397334a265.63925333 265.63925333 0 0 0 169.30133333 236.69418666 188.14293333 188.14293333 0 1 0 208.0768 0 265.69386667 265.69386667 0 0 0 169.30133333-236.69418666s-2.40298667-20.69845333-33.80565333-17.09397334m0 0z"  horiz-adv-x="1024" />

    
    <glyph glyph-name="fire-pumps" unicode="&#58892;" d="M598.528 761.856h-5.12A76.288 76.288 0 0 1 517.12 691.2c-2.56 39.424-48.64 58.368-48.64 58.368A182.272 182.272 0 0 1 409.6 762.3679999999999H289.792a30.72 30.72 0 0 1-30.72-30.72v-207.872a30.72 30.72 0 0 1 30.72-30.72h56.32a30.72 30.72 0 0 0 30.72-30.72v-358.4a30.72 30.72 0 0 1 30.72-30.72h232.448a30.72 30.72 0 0 1 30.72 30.72v358.4a30.72 30.72 0 0 0 30.72 30.72h47.616a30.72 30.72 0 0 1 30.72 30.72V731.648a30.72 30.72 0 0 1-30.72 30.72h-150.528M152.576 793.6l81.408 0 0-338.432-81.408 0 0 338.432ZM800.256 793.6l81.408 0 0-338.432-81.408 0 0 338.432ZM313.344 43.00800000000004l409.6 0 0-69.12-409.6 0 0 69.12ZM117.76 644.096H102.4c-7.168 0-12.8 13.312-12.8 29.696a51.2 51.2 0 0 1-37.376-51.2 38.4 38.4 0 0 1 12.288-31.744c13.824-9.728 25.088-12.288 25.088-5.632A12.8 12.8 0 0 0 102.4 598.528c7.168 0 12.8-9.216 12.8-19.968s3.072-19.968 6.656-19.968 6.656 13.824 6.656 30.72v66.56c0 16.896-3.072 30.72-6.656 30.72s-6.656-9.728-6.656-20.992v-20.992M938.496 670.208v-11.776a12.8 12.8 0 0 0-12.8-11.776c-7.168 0-12.8 9.216-12.8 19.968s-3.072 19.968-6.656 19.968-6.656-13.824-6.656-30.72V588.8c0-16.896 3.072-30.72 6.656-30.72s6.656 9.728 6.656 20.992 5.632 20.992 12.8 20.992 12.8-13.312 12.8-29.696a51.2 51.2 0 0 1 0 98.816"  horiz-adv-x="1024" />

    
    <glyph glyph-name="exit" unicode="&#58931;" d="M961.56054688 440.25c0-16.875-5.625-28.125-16.87500001-39.375L832.36132813 288.46289062000005c-11.25-11.25-22.5-16.875-39.37500001-16.87499999-33.66210938 0-56.16210938 22.5-56.16210937 56.16210937 0 16.875 5.625 28.125 16.875 39.375l16.875 16.875H624.41210938c-33.66210938 0-56.16210938 22.5-56.16210938 56.16210938s22.5 56.16210938 56.16210937 56.16210937h146.07421876L753.61132813 513.19921875c-11.25 11.25-16.875 22.5-16.87500001 39.375 0 33.66210938 22.5 56.16210938 56.16210938 56.16210938 16.875 0 28.125-5.625 39.375-16.875l112.41210938-112.41210938c11.25-11.16210938 16.875-22.41210938 16.87499999-39.19921875zM792.98632813 721.1484375H320.92578125l106.78710938-61.875c16.875-11.25 28.125-28.125 28.12499999-50.53710938v-449.56054687h337.14843751c33.66210938 0 56.16210938-22.5 56.16210937-56.16210938s-22.5-56.16210938-56.16210938-56.16210937H455.75v-56.16210938c0-33.66210938-22.5-56.16210938-56.16210938-56.16210937-11.25 0-22.5 5.625-28.125 11.25L90.4765625 114.26367187000005l-16.875 16.87500001v5.625C67.9765625 142.38867187000005 62.3515625 148.01367187000005 62.3515625 159.26367187000005V777.3984375c0 22.5 16.875 44.91210938 33.66210938 50.53710938C101.7265625 833.56054688 112.9765625 833.56054688 118.6015625 833.56054688h674.38476563c33.66210938 0 56.16210938-22.5 56.16210937-56.16210938 0-33.75-22.5-56.25-56.16210937-56.25z"  horiz-adv-x="1024" />

    
    <glyph glyph-name="reset" unicode="&#58896;" d="M849.2 258.9c-12.7 5.8-27.7 0.1-33.5-12.6-54-118.9-173.2-195.7-303.7-195.7-160.5 0-294.8 114-326.4 265.3l56.1-56.1c4.9-4.9 11.4-7.4 17.9-7.4 6.5 0 13 2.5 17.9 7.4 9.9 9.9 9.9 25.9 0 35.8L171.2 401.9c-1.2 1.2-2.5 2.2-3.9 3.2-0.6 0.4-1.3 0.7-1.9 1.1-0.8 0.4-1.6 0.9-2.4 1.3-0.8 0.3-1.7 0.5-2.5 0.8-0.7 0.2-1.4 0.5-2.2 0.7-1.6 0.3-3.1 0.5-4.7 0.5h-0.2-0.2c-1.6 0-3.2-0.2-4.7-0.5-0.8-0.2-1.5-0.4-2.2-0.7-0.8-0.2-1.7-0.4-2.5-0.8-0.9-0.4-1.6-0.8-2.4-1.3-0.6-0.4-1.3-0.6-1.9-1.1-2.8-1.9-5.2-4.2-7-7-0.4-0.6-0.7-1.3-1-1.9-0.4-0.8-0.9-1.6-1.3-2.4-0.3-0.8-0.5-1.7-0.8-2.6-0.2-0.7-0.5-1.4-0.6-2.2-0.3-1.6-0.5-3.3-0.5-5 0-211.7 172.3-384 384-384 150.3 0 287.6 88.5 349.8 225.4 5.5 12.7-0.1 27.7-12.9 33.5zM880.4 360.6c0.8 0.4 1.6 0.8 2.4 1.3 0.6 0.4 1.3 0.6 1.9 1.1 2.8 1.9 5.2 4.2 7 7 0.4 0.6 0.7 1.3 1 1.9 0.4 0.8 0.9 1.6 1.3 2.4 0.3 0.8 0.5 1.7 0.8 2.6 0.2 0.7 0.5 1.4 0.6 2.2 0.3 1.6 0.5 3.3 0.5 5 0 211.7-172.3 384-384 384-152.1 0-290.1-89.9-351.5-229.1-5.6-12.8 0.1-27.7 12.9-33.4 12.8-5.7 27.7 0.2 33.4 12.9C260.1 639.3 379.9 717.4 512 717.4c160.5 0 294.8-114 326.4-265.3l-56.1 56.1c-9.9 9.9-25.9 9.9-35.8 0-9.9-9.9-9.9-25.9 0-35.8L852.9 366c1.2-1.2 2.5-2.2 3.9-3.2 0.6-0.4 1.3-0.7 1.9-1.1 0.8-0.4 1.6-0.9 2.4-1.3 0.8-0.3 1.7-0.5 2.5-0.8 0.7-0.2 1.4-0.5 2.2-0.6 1.6-0.3 3.3-0.5 5-0.5 1.7 0 3.3 0.2 5 0.5 0.8 0.1 1.5 0.4 2.2 0.6 0.7 0.5 1.5 0.7 2.4 1z"  horiz-adv-x="1024" />

    
    <glyph glyph-name="remind" unicode="&#59088;" d="M512 754.688a370.688 370.688 0 1 1 0.102-741.376A370.688 370.688 0 0 1 512 754.688z m-34.56-177.51a42.854 42.854 0 0 0 34.611 16.486c14.08 0 25.549-5.427 34.611-16.23 9.012-10.855 13.517-24.372 13.517-40.704 0-14.03-18.79-117.197-25.088-192.205h-45.26c-5.479 75.008-25.908 178.176-25.908 192.205a61.44 61.44 0 0 0 13.517 40.448z m68.66-387.226a44.698 44.698 0 0 0-67.994 0 53.658 53.658 0 0 0-14.234 37.683c0 14.695 4.71 27.392 14.234 38.042a44.186 44.186 0 0 0 33.996 15.974c13.108 0 24.474-5.325 33.997-15.974 9.523-10.65 14.234-23.347 14.234-38.042a54.118 54.118 0 0 0-14.234-37.683z"  horiz-adv-x="1024" />

    
    <glyph glyph-name="arrow-up" unicode="&#59200;" d="M169.574375 281.57437500000003l300-300c23.43-23.431875 61.419375-23.431875 84.85125 0l300 300c23.431875 23.431875 23.431875 61.42125 0 84.853125-23.431875 23.43375-61.42125 23.43375-84.853125 0L572 168.85312499999998V744c0 33.136875-26.863125 60-60 60-33.136875 0-60-26.863125-60-60v-575.146875L254.425625 366.4275C242.710625 378.14250000000004 227.354375 384 212 384s-30.710625-5.8575-42.425625-17.574375c-23.431875-23.431875-23.431875-61.419375 0-84.85125z"  horiz-adv-x="1024" />

    
    <glyph glyph-name="popup" unicode="&#59077;" d="M294.65 202.64999999999998H151.55V550.5h599.85v-22.5c0-24.75 20.25-45 45-45s45 20.25 45 45V762.45c0 24.75-20.25 45-45 45H107c-24.75 0-45-20.25-45-45v-604.8c0-24.75 20.25-45 45-45h188.1c24.75 0 45 20.25 45 45-0.45 24.75-20.7 45-45.45 45zM151.55 717.45h599.85v-77.85H151.55V717.45zM917 453.3H415.7c-24.75 0-45-20.25-45-45v-402.75c0-24.75 20.25-45 45-45H917c24.75 0 45 20.25 45 45V408.75c0 24.75-20.25 44.55-45 44.55z m-44.55-402.75H460.7v152.1h411.75v-152.1z m0 241.65H460.7v71.55h411.75v-71.55z"  horiz-adv-x="1024" />

    
    <glyph glyph-name="arrow-down" unicode="&#59828;" d="M854.42562499 486.425625l-300 300c-23.43 23.431875-61.419375 23.431875-84.85124998 0l-300-300c-23.431875-23.431875-23.431875-61.42125-1e-8-84.853125 23.431875-23.43375 61.42125-23.43375 84.853125 0L452 599.14687499 452 24c0-33.136875 26.863125-60 60-60 33.136875 0 60 26.863125 60 60l0 575.14687499L769.574375 401.5725C781.28937499 389.8575 796.645625 384 812.00000001 384s30.710625 5.8575 42.42562499 17.574375c23.431875 23.431875 23.431875 61.419375-1e-8 84.85125z"  horiz-adv-x="1024" />

    
    <glyph glyph-name="fire" unicode="&#59007;" d="M441.450443 366.25946799999997c-150.175665 0-272.296535-116.344883-272.296535-260.744561 0-2.475423 0-5.775987 0.825141-8.25141h543.767929c0 2.475423 0.825141 5.775987 0.825141 8.25141-0.825141 143.574537-122.946011 260.744561-273.121676 260.744561zM615.555197 565.9435940000001v-35.481064h-90.765511c5.775987 12.377115 8.25141 25.579371 8.25141 40.43191 0 55.284448-44.557615 99.842063-99.842063 99.842063s-99.842063-44.557615-99.842063-99.842063c0-15.677679 4.125705-31.355359 10.726833-44.557615-37.131346-7.426269-73.43755-23.103948-103.142627-47.033038-80.86382-64.360999-141.924255-159.252216-144.399677-163.377921-9.076551-14.852538-4.950846-33.830782 9.076551-42.907333 4.950846-3.300564 10.726833-4.950846 16.50282-4.950846 9.901692 0 20.628525 4.950846 26.404513 14.027398 0.825141 0.825141 57.759871 89.940371 131.197421 147.700241 29.705077 23.929089 66.836422 37.131346 105.61805 37.956487v-28.879935h-27.229653c-9.901692 0-18.153102-8.25141-18.153103-18.153103v-24.75423c0-9.901692 8.25141-18.153102 18.153103-18.153103H519.83884c9.901692 0 18.153102 8.25141 18.153102 18.153103v24.75423c0 9.901692-8.25141 18.153102-18.153102 18.153103h-27.229654v28.879935h122.946011v-40.43191L932.409347 343.98066100000005V651.758259L615.555197 565.9435940000001z m-182.356164 42.907333c20.628525 0 37.956487-16.50282 37.956487-37.956487 0-20.628525-16.50282-37.956487-37.956487-37.956487s-37.956487 16.50282-37.956487 37.956487c0.825141 20.628525 17.327961 37.956487 37.956487 37.956487z"  horiz-adv-x="1024" />

    
    <glyph glyph-name="close" unicode="&#58897;" d="M913.14285688 737.14285688l-48.00000001 47.99999999L512 432.68571469 158.85714312 785.14285688l-47.99999999-48.00000001L463.31428531 384l-352.45714219-353.14285688 48-47.99999999L512 335.31428530999995l353.14285688-352.45714219 47.99999999 48L560.68571469 384l352.45714219 353.14285688z"  horiz-adv-x="1024" />

    
    <glyph glyph-name="data" unicode="&#58910;" d="M512 864a480 480 0 1 1 480-480 480 480 0 0 1-480 480z m253.02857156-514.28571469H477.71428531V774.17142844h68.57142938V418.28571469h218.74285687z"  horiz-adv-x="1024" />

    
    <glyph glyph-name="up" unicode="&#58915;" d="M1017.78831622 620.00721377L553.32611952 147.99278622999998h927.98036455L1017.78831622 620.00721377z"  horiz-adv-x="2013" />

    
    <glyph glyph-name="down" unicode="&#58916;" d="M1001.78831622 147.99278622999998l463.51816785 472.01442754H537.32611952l464.46219671-472.01442755z"  horiz-adv-x="2013" />

    
    <glyph glyph-name="setting-evaluation-type" unicode="&#58917;" d="M516.25062958 384m-159.3986141 0a159.39861493 159.39861493 0 1 1 318.79722903 0 159.39861493 159.39861493 0 1 1-318.79722903 0ZM875.42884125 417.47370895L940.25094436 537.0226697400001l-69.60406118 115.82966053L727.71945807 656.57163135l-64.29077381 34.53636593L586.38602007 805.875H446.11523908L369.6039042 690.57666879 302.6564863 656.57163135l-142.92742429-3.1879726L90.125 537.0226697400001l66.94741791-119.54896079v-66.9474179L90.125 230.97733026000003 161.85437681 115.14766972999996l140.80210949-3.71930108 64.29077462-34.53636593 79.16797815-114.76700272h140.27078101l77.04266418 115.29833121 64.29077381 34.00503744 142.92742511 3.71930109L940.25094436 230.97733026000003l-64.82210312 119.54896079z m5.31328738-185.43372171l-39.84965415-63.75944532-126.98756296-3.18797259-87.1379088-46.75692699-69.07273352-103.07777097H474.80698996l-68.54140421 102.54644248-87.66923812 46.75692699L191.60878467 168.28054193000003l-39.84965332 63.75944532 58.44615793 106.26574355V433.9448996l-58.44615793 106.26574274 39.84965332 64.82210312 126.98756296-1.5939863 87.13790963 46.75692699L474.80698996 752.74212863H557.6942692l68.54140421-102.54644248 87.13790962-46.75692699 126.98756296-3.18797178 39.84965415-64.82210312-58.44615875-106.26574355v-92.4511962z"  horiz-adv-x="1034" />

    
    <glyph glyph-name="delete" unicode="&#58918;" d="M396.10027444 805.875h231.79945112v-57.94986236H396.10027444zM917.64903821 689.97527444H106.35096179v-57.94986236h86.92479356v-669.90041208h637.4484893V632.02541208H917.64903821z m-144.87465674-669.90041208h-521.54876294V628.54842051h521.54876294zM367.12534326 476.14028174h57.94986319v-323.36023398h-57.94986319zM598.92479355 476.14028174h57.94986319v-323.36023398h-57.94986319z"  horiz-adv-x="1024" />

    
    <glyph glyph-name="start-evaluation" unicode="&#58919;" d="M90.125 805.875v-843.75h843.75V805.875z m791.015625-791.015625H142.859375V753.140625h738.28125zM238.30859375 654h547.3828125v-52.734375H238.30859375zM238.30859375 471.01171875h547.3828125v-52.734375H238.30859375zM238.30859375 227.90625h243.6328125v-52.734375H238.30859375zM542.5859375 83.4140625l213.046875 122.87109375-213.046875 122.87109375v-245.7421875z"  horiz-adv-x="1024" />

    
    <glyph glyph-name="end" unicode="&#58920;" d="M688.21409375 834l-21.67747911-58.21951552a402.58175362 402.58175362 0 1 0-279.9491581 0L364.90997832 834a464.51740781 464.51740781 0 1 1 323.30411543 0zM495.59420849 832.76128711h61.93565421v-495.48523535H495.59420849z"  horiz-adv-x="1057" />

    
    <glyph glyph-name="expand" unicode="&#58921;" d="M883.99487483 189.53604822L549.63985875 523.89106431 604.21274621 578.46395178l279.78212862-280.55076028L1164.54563512 578.46395178l54.57288748-54.57288747-335.12364777-334.3550161z"  horiz-adv-x="1762" />

    
    <glyph glyph-name="collapse" unicode="&#58922;" d="M873.94627829 578.46395178l335.12364779-334.35501609-54.5728875-54.57288747-280.5507603 280.55076028L594.1641497 189.53604822 539.59126223 244.10893568999995 873.94627829 578.46395178z"  horiz-adv-x="1762" />

    
    <glyph glyph-name="calendar" unicode="&#58923;" d="M759.19238281 705.35009766V779.5078125h-49.43847656v-74.15771484H314.24609375V779.5078125H264.80761719v-74.15771484H116.4921875V-11.5078125h791.015625V705.35009766z m-494.38476562-49.43847657V581.75390625h49.43847656V655.91162109h395.5078125V581.75390625h49.43847656V655.91162109h98.87695313v-155.73120117H165.93066406V655.91162109zM165.93066406 37.930664060000026V450.74194336h692.13867188V37.930664060000026zM314.24609375 334.56152344h395.5078125v-49.43847657H314.24609375zM314.24609375 186.24609375h395.5078125v-49.43847656H314.24609375z"  horiz-adv-x="1024" />

    
    <glyph glyph-name="upload" unicode="&#58924;" d="M951.32406497 210.73958574999995v-141.09154273H217.64804302v141.09154273H161.21142578v-197.52815997h846.54925643v197.52815997h-56.43661724zM556.26774502 659.41069155v-476.88941478h56.43661724V659.41069155l198.65689253-160.27999268 34.99070219 44.02056125L584.48605399 754.78857422 322.05578473 543.15126012l35.55506846-44.02056124L556.26774502 659.41069155z"  horiz-adv-x="1168" />

    
    <glyph glyph-name="download" unicode="&#58925;" d="M952.6573983 210.73958574999995v-141.09154273H218.98137635v141.09154273H162.54475911v-197.52815997h846.54925644v197.52815997h-56.43661725zM614.03769558 277.89916015999995V754.78857422H557.60107835v-476.88941406L358.94418652 438.17915212l-35.55506845-44.02056123 262.43026926-211.63731412 261.86590298 211.63731412-34.99070218 44.02056123L614.03769558 277.89916015999995z"  horiz-adv-x="1168" />

    
    <glyph glyph-name="address" unicode="&#58926;" d="M511.99727099 805.86867188A361.75509915 361.75509915 0 0 1 148.1328125 446.7502717C148.1328125 248.47050896999997 511.99727099-37.875 511.99727099-37.875s363.86445849 286.34550897 363.8644585 484.6252717A361.75509915 361.75509915 0 0 1 511.99727099 805.86867188z m0-537.88659083a174.02213232 174.02213232 0 1 0 174.02213233 174.02213233 174.02213232 174.02213232 0 0 0-174.02213233-174.02213233z m0 0"  horiz-adv-x="1024" />

    
    <glyph glyph-name="telephone" unicode="&#58927;" d="M913.23032441 168.53391165000005a101.6535803 101.6535803 0 0 0 6.84713177-111.66092742 495.62704247 495.62704247 0 0 0-65.83781085-67.41791895c-52.67024918-52.67024918-165.91128387-15.80107434-215.94802121 0a1152.42504785 1152.42504785 0 0 0-312.33457618 222.79515298A890.12720737 890.12720737 0 0 0 105.26870493 567.2476964699999a169.59820193 169.59820193 0 0 0 0 140.1028624C115.27605206 735.26579114 133.71063907 758.44070077 188.48769822 790.04284946S262.75274892 797.4166847500001 276.97371683 790.04284946a310.7544689 310.7544689 0 0 0 95.85985309-111.66092744c21.06809967-52.67024918 11.06075254-83.21899328-5.26702533-98.49336574a456.1243558 456.1243558 0 0 0-41.08279394-37.39587672c-13.69426437-9.48064444-16.32777705-23.17490964-14.22096708-48.98333112S406.54252939 363.41383319 427.61062823 344.45254348000003s142.20967237-146.42329229 184.8725744-158.0107467 58.46397638 8.95394257 63.2042982 14.22096708a360.79120541 360.79120541 0 0 0 40.55609206 43.7163066 98.49336575 98.49336575 0 0 0 83.21899329 0 460.33797574 460.33797574 0 0 0 113.24103552-80.05877874z"  horiz-adv-x="1024" />

    
    <glyph glyph-name="zip-code" unicode="&#58928;" d="M1152.60354705 681.57787966A100.46443419 100.46443419 0 0 1 1050.8674108 779.49891048H236.97832377A100.46443419 100.46443419 0 0 1 135.2421875 681.57787966l508.68067978-275.95926891zM631.84170109 312.78438666L135.2421875 576.0266387300001v-488.33345283a100.46443419 100.46443419 0 0 1 101.73613627-99.19273213h813.88908703a100.46443419 100.46443419 0 0 1 101.73613625 98.55688148V576.0266387300001L656.00403347 312.78438666a26.0698851 26.0698851 0 0 0-24.16233238 0z"  horiz-adv-x="1317" />

    
    <glyph glyph-name="specially-designed" unicode="&#58929;" d="M849.40852481 805.64309647h-225.05186206a78.53097739 78.53097739 0 0 1-84.32856656-84.32856657v-218.20016628a83.80151285 83.80151285 0 0 1 84.32856656-91.18026233h225.05186206a82.74740625 82.74740625 0 0 1 84.32856657 84.32856655V721.3145299A78.53097739 78.53097739 0 0 1 849.40852481 805.64309647zM399.83185439 356.06642605H174.77999233A83.80151285 83.80151285 0 0 1 90.45142578 264.88616290000004v-218.20016546A78.53097739 78.53097739 0 0 1 174.77999233-37.64256911999996h225.05186207a85.38267398 85.38267398 0 0 1 84.32856656 84.32856656v225.05186206a78.53097739 78.53097739 0 0 1-84.32856656 84.32856655zM849.40852481 356.06642605h-218.20016547a83.80151285 83.80151285 0 0 1-91.18026315-84.32856655v-225.05186206c0-58.50294296 34.78553338-84.32856655 91.18026315-84.32856656h218.20016547a78.53097739 78.53097739 0 0 1 84.32856657 84.32856656v225.05186206a78.53097739 78.53097739 0 0 1-84.32856657 84.32856655zM90.45142578 805.64309647m84.32856655 0l225.05186206 0q84.32856655 0 84.32856658-84.32856657l0-225.05186206q0-84.32856655-84.32856657-84.32856655l-225.05186207 0q-84.32856655 0-84.32856655 84.32856655l0 225.05186206q0 84.32856655 84.32856655 84.32856657Z"  horiz-adv-x="1024" />

    
    <glyph glyph-name="afiliate" unicode="&#58930;" d="M1043.4726398 22.951349479999976a34.92998273 34.92998273 0 0 1-24.6918848 10.23809877h-63.83755481V500.52853107a70.46220684 70.46220684 0 0 1-70.46220767 70.46220685h-240.89643402V735.40255445A70.46220684 70.46220684 0 0 1 571.91786887 805.86476212H252.12785261a70.46220684 70.46220684 0 0 1-70.46220768-70.46220767v-702.81534761H125.65722412a34.92998273 34.92998273 0 1 1 0-69.85996545h892.5212895a35.53222412 35.53222412 0 0 1 35.53222412 35.53222412 34.92998273 34.92998273 0 0 1-10.23809794 24.69188397zM355.11107825 107.86734320999994A25.29412537 25.29412537 0 0 0 331.02143485 83.17545840000002H235.86734321a25.29412537 25.29412537 0 0 0-25.29412619 24.6918848v70.46220685a25.29412537 25.29412537 0 0 0 25.29412619 25.29412537H331.02143485a25.29412537 25.29412537 0 0 0 25.29412536-25.29412537z m0 240.89643401A25.29412537 25.29412537 0 0 0 331.02143485 324.07189326H235.86734321A25.29412537 25.29412537 0 0 0 210.57321702 348.76377721999995v90.33616296a25.29412537 25.29412537 0 0 0 25.29412619 25.29412619H331.02143485a25.29412537 25.29412537 0 0 0 25.29412536-25.29412619z m0 240.89643485A25.29412537 25.29412537 0 0 0 331.02143485 564.9683272699999H235.86734321A25.29412537 25.29412537 0 0 0 210.57321702 589.66021207V660.12241892A25.29412537 25.29412537 0 0 0 235.86734321 685.41654428H331.02143485a25.29412537 25.29412537 0 0 0 25.29412536-25.29412536z m216.80679062-481.79286887a25.29412537 25.29412537 0 0 0-25.29412537-25.29412618H451.46965185a25.29412537 25.29412537 0 0 0-25.29412536 25.29412618v70.46220685A25.29412537 25.29412537 0 0 0 451.46965185 203.62367542000004h95.15409165a25.29412537 25.29412537 0 0 0 25.29412537-25.29412537z m0 240.89643402a25.29412537 25.29412537 0 0 0-25.29412537-24.69188397H451.46965185a25.29412537 25.29412537 0 0 0-25.29412536 25.29412536V439.09994018A25.29412537 25.29412537 0 0 0 451.46965185 464.39406637h95.15409165a25.29412537 25.29412537 0 0 0 25.29412537-25.29412619z m0 240.89643485a25.29412537 25.29412537 0 0 0-25.29412537-24.6918848H451.46965185a25.29412537 25.29412537 0 0 0-25.29412536 25.29412536V660.12241892A25.29412537 25.29412537 0 0 0 451.46965185 685.41654428h95.15409165a25.29412537 25.29412537 0 0 0 25.29412537-25.29412536z"  horiz-adv-x="1169" />

    
    <glyph glyph-name="edit-2" unicode="&#58932;" d="M323.6 195.60000000000002l69.6-1.60000031-71.20000031 71.20000031 1.60000031-69.6zM336.68 307.08000000000004l186.96 186.96 98.11999969-98.11999969-186.96-186.96zM552.24000031 522.12l44.11999969 44.11999969 98.11999969-98.11999969L650.40000031 424.00000031zM512 864a480 480 0 1 1 480-480A480 480 0 0 1 512 864z m-76.8-711.6l-3.19999969 1.99999969h-4.8l-143.60000062 2.80000031-2.79999938 143.59999969a19.2 19.2 0 0 0 0 5.20000031l-2.4 2.4L596 624 752 468z"  horiz-adv-x="1024" />

    
    <glyph glyph-name="delete-2" unicode="&#58934;" d="M512 864a480 480 0 1 1 480-480A480 480 0 0 1 512 864z m-62.80000031-246.79999969h125.60000062v-40.00000031h-125.60000062z m282.80000062-103.2h-42.80000062v-363.20000062H334.80000031V514.00000031H291.99999969v39.99999938h440.00000062zM649.20000031 512.4H374.79999969v-319.99999969h274.40000062z m-180-253.60000031h-40.00000031v175.2h40.00000031z m125.59999969 0h-40.00000031v175.2h40.00000031z"  horiz-adv-x="1024" />

    
    <glyph glyph-name="magnifier" unicode="&#58935;" d="M587.19999969 509.59999969a160.00000031 160.00000031 0 1 1 26.4-224.79999938 160.00000031 160.00000031 0 0 1-26.4 224.79999938zM512 864a480 480 0 1 1 480-480A480 480 0 0 1 512 864z m211.60000031-691.99999969L632 244.79999999999995a204.40000031 204.40000031 0 1 0 24 31.99999969l93.19999969-73.59999938z"  horiz-adv-x="1024" />

    
    <glyph glyph-name="modify" unicode="&#58936;" d="M881.140625 278.53125v-263.671875H142.859375V753.140625h444.0234375V805.875H90.125v-843.75h843.75v316.40625h-52.734375zM317.41015625 136.67578125l198.80859375-5.2734375L933.875 547.4765625 728.2109375 753.140625 312.13671875 335.484375zM728.2109375 677.203125l129.7265625-129.7265625-58.0078125-58.0078125L670.203125 619.1953125z"  horiz-adv-x="1024" />

    
    <glyph glyph-name="export" unicode="&#58937;" d="M881.140625 278.53125v-263.671875H142.859375V753.140625h444.0234375V805.875H90.125v-843.75h843.75v316.40625h-52.734375zM195.59375 254.80078125A572.16796875 572.16796875 0 0 0 584.24609375 405.09375h96.50390625v-186.15234375l216.73828125 248.90625v2.63671875a46.40625 46.40625 0 0 1 8.96484375 13.18359375s-4.74609375 6.328125-8.4375 11.07421875l-203.02734375 225.703125v-151.34765625l-81.73828125-3.1640625A421.875 421.875 0 0 1 195.59375 254.80078125z"  horiz-adv-x="1024" />

    
    <glyph glyph-name="edit" unicode="&#58938;" d="M881.140625 278.53125v-263.671875H142.859375V753.140625h444.0234375V805.875H90.125v-843.75h843.75v316.40625h-52.734375zM459.265625 83.4140625l123.92578125 10.546875 326.953125 424.51171875-144.4921875 111.796875-326.953125-424.51171875z m316.40625 474.609375l61.69921875-47.4609375-17.9296875-23.203125-61.69921875 47.4609375zM221.9609375 621.3046875h369.140625v-52.734375h-369.140625zM221.9609375 436.734375H459.265625v-52.734375H221.9609375z"  horiz-adv-x="1024" />

    
    <glyph glyph-name="back" unicode="&#58939;" d="M512 864a480 480 0 1 1 480-480 480 480 0 0 1-480 480z m106.2-700.8l-46.2-38.4L352.4 384 572 643.2l45.6-39L431.6 384z"  horiz-adv-x="1024" />

    
    <glyph glyph-name="not-pass" unicode="&#58940;" d="M512 864a480 480 0 1 1 480-480A480 480 0 0 1 512 864z m19.99999969-720h-39.99999938v79.99999969h39.99999938z m0 160.00000031h-39.99999938V583.99999969h39.99999938z"  horiz-adv-x="1024" />

    
    <glyph glyph-name="pass" unicode="&#58941;" d="M512 864a480 480 0 1 1 480-480A480 480 0 0 1 512 864z m-25.99999969-619.99999969l-185.20000031 123.19999969 22.00000031 33.19999969 157.59999938-105.19999969 216.80000062 216.79999969 28.39999969-28.39999969z"  horiz-adv-x="1024" />

    
    <glyph glyph-name="assessment" unicode="&#58943;" d="M512 864a480 480 0 1 1 480-480A480 480 0 0 1 512 864z m247.60000031-405.6l-78 28.00000031 18.39999938 11.59999969a199.99999969 199.99999969 0 1 1-35.19999938-240l27.99999938-28.8a240 240 0 1 0 40.00000031 289.60000031l32.80000031 21.19999969z m-160.00000031-108l-18.79999969-35.20000031-89.60000062 48.40000031V504h40.00000031v-116.4z"  horiz-adv-x="1024" />

    
    <glyph glyph-name="leader-instruction" unicode="&#58944;" d="M494.40000031 346.79999999999995a94.39999969 94.39999969 0 0 0-32.00000062-53.20000031h98.80000031l-3.19999969 3.6c-47.59999969 55.99999969-10.8 115.60000031 13.2 154.8l3.19999969 4.8v2.00000062a100.8 100.8 0 0 1 7.99999969 14.4 82.8 82.8 0 0 1 11.20000031 42 85.60000031 85.60000031 0 1 1-170.80000031 0 82.8 82.8 0 0 1 20.80000031-51.20000062c4.00000031-6.40000031 8.80000031-12.79999969 13.60000031-19.2a124.00000031 124.00000031 0 0 0 37.2-97.99999969zM512 864a480 480 0 1 1 480-480A480 480 0 0 1 512 864zM326.79999969 291.19999969a16.8 16.8 0 0 0 18.80000062 18.80000062h71.19999938c76.39999969 48 22.00000031 89.59999969-4.39999969 132a123.19999969 123.19999969 0 0 0-26.80000031 76.39999969 125.59999969 125.59999969 0 1 0 250.8 0 120 120 0 0 0-15.6-60 139.2 139.2 0 0 0-12.79999969-21.6c-24.40000031-40.00000031-49.60000031-77.59999969-19.60000031-113.20000031a45.6 45.6 0 0 1 24.80000062-12.79999969h66.39999938c15.6 0 18.79999969-3.19999969 18.80000062-18.79999969v-28.00000031c0-12.40000031 0-8.80000031-10.00000031-10.00000031H337.20000031c-6.79999969 0-10.8 0-10.8 9.20000062z m400.00000031-116.4a10.00000031 10.00000031 0 0 0-10.00000031-9.99999938H307.59999969a10.00000031 10.00000031 0 0 0-9.99999938 9.99999938V184.00000031000002a10.00000031 10.00000031 0 0 0 9.99999938 9.99999938h409.60000031a9.6 9.6 0 0 0 8.80000031-9.99999938z"  horiz-adv-x="1024" />

    
    <glyph glyph-name="time-limits" unicode="&#58945;" d="M512 864a480 480 0 1 1 480-480A480 480 0 0 1 512 864z m21.6-679.99999969h-46.8v54h46.8z m70.39999969 258a58.39999969 58.39999969 0 0 0-9.6-32.80000031l-62.4-95.20000031v-21.99999938h-43.2V304.00000031a58.39999969 58.39999969 0 0 0 8.80000031 33.6l63.6 94.8V546.40000031h-98.4v-108H420.39999969V550.00000031a32.80000031 32.80000031 0 0 0 11.60000062 24.39999938 34.39999969 34.39999969 0 0 0 22.8 9.6h114a34.00000031 34.00000031 0 0 0 24.79999969-9.6 32.80000031 32.80000031 0 0 0 9.6-24.39999938z"  horiz-adv-x="1024" />

    
    <glyph glyph-name="rectification-opinion" unicode="&#58946;" d="M512 604.00000031a220.00000031 220.00000031 0 1 1 220.00000031-220.00000031A220.39999969 220.39999969 0 0 1 512 604.00000031z m100.00000031-260.00000062H471.99999969V523.99999969h40.00000031V384h100.00000031zM512 864a480 480 0 1 1 480-480A480 480 0 0 1 512 864z m0-739.99999969a259.99999969 259.99999969 0 1 0 259.99999969 259.99999969 260.4 260.4 0 0 0-259.99999969-259.99999969z"  horiz-adv-x="1024" />

    
    <glyph glyph-name="inspection-opinion" unicode="&#58947;" d="M732.00000031 236.80000030999997V523.99999969h-440.00000062v-348l125.20000031 60.80000062zM372.00000031 463.99999969h279.99999938v-39.99999938h-279.99999938z m0-120h279.99999938v-39.99999938h-279.99999938zM512 864a480 480 0 1 1 480-480A480 480 0 0 1 512 864z m259.99999969-667.2H426.39999969L252.00000031 112.00000031000002V564h519.99999938z"  horiz-adv-x="1024" />

    
    <glyph glyph-name="search" unicode="&#58951;" d="M783.70346972 144.09463682l-9.65299657-9.65299659a407.1293376 407.1293376 0 1 1-7.94952686-7.94952685l-22.14510996-22.14510996 170.34700253-170.34700342 40.31545782 40.31545781z m-302.64984228-76.08832735A354.32176641 354.32176641 0 0 0 231.77917988 675.00946377a354.32176641 354.32176641 0 1 0 497.98107246-504.79495312 352.61829668 352.61829668 0 0 0-248.7066249-102.20820118z"  horiz-adv-x="1024" />

    
    <glyph glyph-name="latest-information" unicode="&#58952;" d="M389.67508348-11.5078125h-226.00446385a28.25055836 28.25055836 0 0 0-28.25055836 28.25055836V751.25725413A28.25055836 28.25055836 0 0 0 163.67061964 779.5078125h226.00446384a28.25055836 28.25055836 0 0 0 28.25055837-28.25055836v-734.51450827a28.25055836 28.25055836 0 0 0-28.25055837-28.25055837zM191.92117723 44.99330347h169.50334866V723.00669653H191.92117723zM304.92340993 440.50111596H248.42229319a28.25055836 28.25055836 0 0 0 1e-8 56.50111597h56.50111673a28.25055836 28.25055836 0 0 0 0-56.50111597zM304.92340993 327.49888404H248.42229319a28.25055836 28.25055836 0 0 0 1e-8 56.50111596h56.50111673a28.25055836 28.25055836 0 0 0 0-56.50111596zM728.68178003-11.5078125h-226.00446385a28.25055836 28.25055836 0 0 0-28.25055837 28.25055836V751.25725413a28.25055836 28.25055836 0 0 0 28.25055837 28.25055837h226.00446385a28.25055836 28.25055836 0 0 0 28.25055835-28.25055836v-734.51450827a28.25055836 28.25055836 0 0 0-28.25055835-28.25055837zM530.92787378 44.99330347h169.50334865V723.00669653H530.92787378zM643.93010569 440.50111596H587.42898973a28.25055836 28.25055836 0 0 0 1e-8 56.50111597h56.50111596a28.25055836 28.25055836 0 0 0 0-56.50111597zM643.93010569 327.49888404H587.42898973a28.25055836 28.25055836 0 0 0 1e-8 56.50111596h56.50111596a28.25055836 28.25055836 0 0 0 0-56.50111596zM860.32938036-11.5078125a28.25055836 28.25055836 0 0 0-28.25055759 28.25055836V751.25725413a28.25055836 28.25055836 0 0 0 56.50111595 1e-8v-734.51450827a28.25055836 28.25055836 0 0 0-28.25055836-28.25055837z"  horiz-adv-x="1024" />

    
    <glyph glyph-name="latest-notice" unicode="&#58953;" d="M919.3829308 805.875L596.33662786 715.69381431H365.32454876A211.86401907 211.86401907 0 0 1 147.28373586 511.85962637 210.01098093 210.01098093 0 0 1 354.82399925 311.73151556000005v-346.51811865h269.30819917V299.99560729999996l295.25073239-82.76903311zM209.05167162 511.85962637a150.09608331 150.09608331 0 0 0 156.27287714 142.06625217h203.83418709v-284.13250351h-203.83418709A150.09608331 150.09608331 0 0 0 209.05167162 511.85962637z m353.31259103-487.9666906H416.59193502v284.1325035h145.77232763z m295.25073239 274.86731277l-226.07064404 61.76793575V661.33803113l226.07064404 61.76793494z"  horiz-adv-x="1086" />

    
    <glyph glyph-name="to-dos" unicode="&#58954;" d="M879.25725413 779.5078125H144.74274587a28.25055836 28.25055836 0 0 1-28.25055837-28.25055836v-734.51450827a28.25055836 28.25055836 0 0 1 28.25055836-28.25055837h734.51450827a28.25055836 28.25055836 0 0 1 28.25055837 28.25055837V751.25725413a28.25055836 28.25055836 0 0 1-28.25055837 28.25055837zM851.00669653 44.99330347H172.99330347V723.00669653h678.01339307zM452.10881663 525.25279028h300.02092679a28.25055836 28.25055836 0 0 1-1e-8 56.50111597H452.10881663a28.25055836 28.25055836 0 0 1 0-56.50111597zM271.87025659 525.25279028h59.89118336a28.25055836 28.25055836 0 0 1 0 56.50111597H271.87025659a28.25055836 28.25055836 0 0 1-1e-8-56.50111597zM452.10881663 355.74944164h300.02092679a28.25055836 28.25055836 0 0 1-1e-8 56.50111672H452.10881663a28.25055836 28.25055836 0 0 1 0-56.50111673zM271.87025659 355.74944164h59.89118336a28.25055836 28.25055836 0 0 1 0 56.50111672H271.87025659a28.25055836 28.25055836 0 0 1-1e-8-56.50111673zM452.10881663 186.24609375h300.02092679a28.25055836 28.25055836 0 0 1-1e-8 56.50111596H452.10881663a28.25055836 28.25055836 0 0 1 0-56.50111596zM271.87025659 186.24609375h59.89118336a28.25055836 28.25055836 0 0 1 0 56.50111596H271.87025659a28.25055836 28.25055836 0 0 1-1e-8-56.50111596z"  horiz-adv-x="1024" />

    
    <glyph glyph-name="security-notices" unicode="&#58955;" d="M351.99999969 517.8v-131.80000031c0-88.2 56.4-164.59999969 147-199.99999969l3.40000031-1.60000031a21.40000031 21.40000031 0 0 1 22.60000031 0l3.39999938 1.60000031c90.6 34.8 147 111.19999969 147 199.99999969v131.80000031l-161.59999969 64.60000031z m252.6-115.00000031v-39.99999938h-70.99999969v-71.00000062h-40.00000031v71.00000062h-70.99999969v39.99999938h70.99999969V474h40.00000031v-70.99999969zM512 864a480 480 0 1 1 480-480A480 480 0 0 1 512 864z m203.4-478.00000031c0-104.59999969-65.59999969-194.80000031-171.19999969-235.99999969a61.00000031 61.00000031 0 0 0-61.2 0C377.6 191.20000030999995 312.00000031 281.4 312.00000031 385.99999969V544.00000031l201.6 79.99999969 201.6-79.99999969z"  horiz-adv-x="1024" />

    
    <glyph glyph-name="risk-early-warning" unicode="&#58956;" d="M507.39999969 564a109.99999969 109.99999969 0 0 1-104.79999938-104.80000031v-161.19999938h219.99999938v161.4A110.4 110.4 0 0 1 507.39999969 564z m55.2-102a37.8 37.8 0 0 1-26.79999938 36.40000031l11.79999938 38.19999938a77.59999969 77.59999969 0 0 0 55.00000031-74.59999969zM512 864a480 480 0 1 1 480-480A480 480 0 0 1 512 864z m-149.4-403.99999969a150.40000031 150.40000031 0 0 0 300 0v-202.2h-300z m331.00000031-277.60000031H332v40.00000031h361.60000031z"  horiz-adv-x="1024" />

    
    <glyph glyph-name="system-notifications" unicode="&#58957;" d="M512 864a480 480 0 1 1 480-480A480 480 0 0 1 512 864z m244.99999969-607.60000031h-191.59999969v-85.8h120v-39.99999938H333.8v39.99999938h120v85.8H261.99999969V643.99999969h495zM493.59999969 236.39999999999998h31.60000031v-65.80000031h-31.60000031zM302 604.00000031h415.00000031v-236.00000062H302zM302 328.00000031h415.00000031v-31.40000062H302z"  horiz-adv-x="1024" />

    
    <glyph glyph-name="menu-document" unicode="&#58958;" d="M326.16352857 456.62658215L463.94042683 307.63528482000004l36.31329189-40.05142411 36.31329108 40.05142411 136.17484113 148.99129733 67.82041157 74.76265805H583.56068037V805.875H414.81068037v-274.4857598H258.34311697z m0 2e-8M584.62871872 299.625l-85.44303836-92.91930359-85.44303837 92.91930359H155.81147143A65.6843357 65.6843357 0 0 1 90.12713574 233.94066429999998v-205.59730983a65.6843357 65.6843357 0 0 1 65.68433569-66.21835447h712.38132944a65.6843357 65.6843357 0 0 1 65.68433487 65.6843357v206.1313286a65.6843357 65.6843357 0 0 1-65.68433487 65.6843357z m124.42642327-272.88370267H596.37713575v112.67800626h112.67800624z m168.75 0h-112.67800625v112.67800626h112.67800625z m0 0"  horiz-adv-x="1024" />

    
    <glyph glyph-name="menu-finance" unicode="&#58959;" d="M901.2594618 594.9375H772.06024305a131.8359375 131.8359375 0 0 1 0-263.671875h129.19921875A55.8984375 55.8984375 0 0 1 956.63055555 386.63671875v152.9296875A55.8984375 55.8984375 0 0 1 901.2594618 594.9375zM719.32586805 436.734375a26.3671875 26.3671875 0 1 0 26.3671875 26.3671875 26.3671875 26.3671875 0 0 0-26.3671875-26.3671875zM587.48993055 463.1015625a176.1328125 176.1328125 0 0 0 175.60546876 175.60546875H851.16180556V753.140625a52.734375 52.734375 0 0 1-52.73437501 52.734375H165.61493055a52.734375 52.734375 0 0 1-52.734375-52.734375v-419.23828125A487.265625 487.265625 0 0 0 350.18524305 384C482.02118055 384 640.22430556 349.72265625 640.22430556 252.1640625a76.46484375 76.46484375 0 0 0-4.74609376-26.3671875 77.51953125 77.51953125 0 0 0 0-52.734375 77.51953125 77.51953125 0 0 0 0-52.734375 77.51953125 77.51953125 0 0 0 0-52.73437501H798.42743055a52.734375 52.734375 0 0 1 52.73437501 52.73437501V287.49609375h-88.06640625A176.1328125 176.1328125 0 0 0 587.48993055 463.1015625zM350.18524305 14.859375c-105.46875001 0-189.84375001 22.1484375-222.5390625 52.73437499a37.96875001 37.96875001 0 0 1-14.765625-26.36718749c0-43.76953125 105.46875001-79.1015625 237.3046875-79.1015625S587.48993055-2.54296875 587.48993055 41.2265625a37.96875001 37.96875001 0 0 1-14.76562499 26.36718751c-32.6953125-30.5859375-119.1796875-52.734375-222.53906251-52.73437501zM350.18524305 120.328125c-105.46875001 0-189.84375001 22.1484375-222.5390625 52.734375a37.96875001 37.96875001 0 0 1-14.765625-26.3671875c0-43.76953125 105.46875001-79.1015625 237.3046875-79.10156251S587.48993055 102.92578125 587.48993055 146.6953125a37.96875001 37.96875001 0 0 1-14.76562499 26.3671875c-32.6953125-30.5859375-119.1796875-52.734375-222.53906251-52.734375zM112.88055555 252.1640625a237.3046875 79.1015625 0 1 1 474.609375 0 237.3046875 79.1015625 0 1 1-474.609375 0Z"  horiz-adv-x="1024" />

    
    <glyph glyph-name="menu-safe" unicode="&#58960;" d="M908.36883951 569.3674111099999a75.56100437 75.56100437 0 0 0-83.43194276 78.18465103L797.12624967 674.31325086S626.58925988 856.91901247 437.16201899 740.95385925l9.44512517-11.01931345L517.97031513 743.0527759500001l-58.2449408-28.86010542 11.54404263-13.64295934c79.75883855 14.69241769 225.63355553-38.82996053 179.45738577-99.69854799L514.82194009 456.55063297a73.98681685 73.98681685 0 0 0-33.05793963-19.41498028L152.23406353 118.10030004999999A52.47291987 52.47291987 0 0 1 152.75879271 44.638211609999985l41.97833559-39.8794189a52.47291987 52.47291987 0 0 1 75.56100514 4.1978334l298.04618485 346.32127134a75.56100437 75.56100437 0 0 0 18.8902511 36.7310446l4.19783419 3.67310423 146.39944615 157.41875962a77.13519266 77.13519266 0 0 0 55.62129493-19.41498026A75.56100437 75.56100437 0 0 0 818.64014663 473.86669653l46.17616976-43.02779395 89.7286929 94.97598465z"  horiz-adv-x="1059" />

    
    <glyph glyph-name="menu-system" unicode="&#58963;" d="M614.35255185-47.793278620000024a56.22308349 56.22308349 0 0 1 67.4677002-11.80684775 402.55727607 402.55727607 0 0 1 106.82385821 65.78100703 79.83677812 79.83677812 0 0 1 22.48923251 71.96554687 202.40309971 202.40309971 0 0 0 16.86692549 112.44616612 145.61778516 145.61778516 0 0 0 84.33462481 71.96554688 71.96554688 71.96554688 0 0 1 44.9784668 56.22308262 516.69013447 516.69013447 0 0 1 0 132.12424599 71.96554688 71.96554688 0 0 1-44.9784668 56.22308349 146.18001621 146.18001621 0 0 0-84.33462481 71.965546 202.40309971 202.40309971 0 0 0-16.86692549 112.44616611 85.45908604 85.45908604 0 0 1-22.48923251 71.96554688A402.55727607 402.55727607 0 0 1 680.69578994 827.60012636a56.22308349 56.22308349 0 0 1-67.46769932-11.80684774 147.30447833 147.30447833 0 0 0-202.96533075 0A56.22308349 56.22308349 0 0 1 343.35729073 827.60012636a402.55727607 402.55727607 0 0 1-106.82385821-65.78100702 68.02993037 68.02993037 0 0 1-22.48923252-71.96554687A161.92247959 161.92247959 0 0 0 112.84264971 503.75516719a56.22308349 56.22308349 0 0 1-44.9784668-56.2230835A260.87510566 260.87510566 0 0 1 62.241875 384a260.87510566 260.87510566 0 0 1 5.62230791-65.78100703 56.22308349 56.22308349 0 0 1 44.9784668-56.22308349 145.61778516 145.61778516 0 0 0 84.3346248-71.96554688 202.40309971 202.40309971 0 0 0 16.86692549-112.44616612 85.45908604 85.45908604 0 0 1 22.48923252-71.96554599A402.55727607 402.55727607 0 0 1 343.35729073-59.60012635999999a56.22308349 56.22308349 0 0 1 67.46770019 11.80684774 136.6220918 136.6220918 0 0 0 202.96532988 0zM372.03106308 384A138.30878497 138.30878497 0 0 0 512.02654033 524.5577083000001 138.30878497 138.30878497 0 0 0 653.14647969 384 138.30878497 138.30878497 0 0 0 512.02654033 243.44229170000006 138.30878497 138.30878497 0 0 0 372.03106308 384z m11.24461671 0"  horiz-adv-x="1024" />

    
    <glyph glyph-name="menu-data" unicode="&#58964;" d="M90.125 630.26953125a421.875 175.60546875 0 1 1 843.75 0 421.875 175.60546875 0 1 1-843.75 0ZM512 67.59374998999999c-188.7890625 0-348.57421875 52.734375-402.36328125 122.87109376a87.01171875 87.01171875 0 0 1-19.51171875-52.734375C90.125 40.69921875 278.9140625-37.875 512-37.875s421.875 78.57421875 421.875 175.60546875a87.01171875 87.01171875 0 0 1-19.51171875 52.734375C860.57421875 120.328125 700.7890625 67.59374998999999 512 67.59374998999999zM512 295.93359375C307.91796875 295.93359375 137.5859375 356.578125 98.5625 436.734375a79.62890625 79.62890625 0 0 1-8.4375-35.33203125C90.125 304.37109375 278.9140625 225.796875 512 225.796875s421.875 78.57421875 421.875 175.60546875a79.62890625 79.62890625 0 0 1-8.4375 35.33203125C886.4140625 356.578125 716.08203125 295.93359375 512 295.93359375z"  horiz-adv-x="1024" />

    
    <glyph glyph-name="menu-guard" unicode="&#58965;" d="M511.70009187 864L117.6205325 706.24821281v-315.50357437a510.44399531 510.44399531 0 0 1 346.69404094-473.25536157 89.97250219 89.97250219 0 0 1 94.77103594 0 510.44399531 510.44399531 0 0 1 346.69404187 473.25536157V706.24821281z m197.93950407-509.84417906h-167.94867v-167.34885375h-59.98166814V354.15582094H314.36040406v59.98166812h167.34885376V581.48634281h59.98166812V414.13748906h167.94867z"  horiz-adv-x="1024" />

    
    <glyph glyph-name="menu-info" unicode="&#58966;" d="M854.7734375 784.54166667h-685.546875A79.1015625 79.1015625 0 0 1 90.125 705.44010417V-59.20833332999996l155.0390625 158.203125H854.7734375a79.1015625 79.1015625 0 0 1 79.1015625 79.1015625v527.34375A79.1015625 79.1015625 0 0 1 854.7734375 784.54166667zM775.671875 309.93229167000004H248.328125V362.66666667000004h527.34375z m0 184.5703125H248.328125v52.734375h527.34375z"  horiz-adv-x="1024" />

    
    <glyph glyph-name="menu-post" unicode="&#58967;" d="M946.49589635 608.03415281L655.8945654 853.09795594a41.34328219 41.34328219 0 0 1-59.91780093-4.19424563L527.07129446 769.21303594a41.34328219 41.34328219 0 0 1 3.59506781-59.9178l19.17369657-14.97945-331.94461406-221.69586094a41.34328219 41.34328219 0 0 1-17.97534-26.96301094L107.64669259-63.04520998999999l275.02270313 333.74214749a27.56218781 27.56218781 0 0 0 42.54163873-35.35150219L152.58504258-96l479.34240188 185.14600311a40.74410437 40.74410437 0 0 1 22.76876438 22.16958564l164.17477311 370.29200625 17.3761622-13.78109437a41.34328219 41.34328219 0 0 1 59.91780001 7.19013562l59.91779999 75.49642875a41.34328219 41.34328219 0 0 1-9.5868478 57.52108781zM520.48033666 301.85419406000005a88.07916656 88.07916656 0 1 0 79.69067437 95.26930219 88.07916656 88.07916656 0 0 0-79.69067437-95.26930219z"  horiz-adv-x="1024" />

    
    <glyph glyph-name="fault" unicode="&#58962;" d="M956.159671-5.119699999999966a36.571409 36.571409 0 0 0-34.742839 25.051415l-159.451343 476.891173v1.462856l-116.297081 347.428386A73.142818 73.142818 0 0 1 575.999874 895.999817h-93.257093a73.142818 73.142818 0 0 1-69.30282-49.919973L137.325824 19.931715000000054a36.571409 36.571409 0 0 0-34.742839-25.051415H61.44015A61.25711 61.25711 0 0 1 0.000183-66.55966699999999 61.25711 61.25711 0 0 1 61.44015-127.99963400000001h901.119517A61.25711 61.25711 0 0 1 1023.999634-66.55966699999999a61.25711 61.25711 0 0 1-61.439967 61.439967zM500.297058 804.571295h61.988538a19.748561 19.748561 0 0 0 18.285704-13.531422A19.931418 19.931418 0 0 0 566.857022 765.074173l-69.668534-18.285704A18.285704 18.285704 0 0 0 475.4285 769.828456l7.131424 21.942846a18.285704 18.285704 0 0 0 17.737134 12.799993z m-85.759954-253.07415l198.765607 53.2114A36.571409 36.571409 0 0 0 658.285544 581.1199859999999l21.759989-64.914251a36.571409 36.571409 0 0 0-25.234272-46.994261L407.588536 402.285796a36.571409 36.571409 0 0 0-44.251405 46.811403l25.9657 77.714244a36.571409 36.571409 0 0 0 25.234273 24.685702z m-123.062792-370.285516l425.14263 114.102796a36.571409 36.571409 0 0 0 44.251405-23.771416l33.097125-99.474233a36.571409 36.571409 0 0 0-25.051415-46.811403l-481.645457-129.097074a34.01141 34.01141 0 0 0-9.508566-1.279999h-14.811421a36.571409 36.571409 0 0 0-34.742838 48.091403l38.034265 114.46851a36.571409 36.571409 0 0 0 25.234272 23.771416z"  horiz-adv-x="1024" />

    
    <glyph glyph-name="time" unicode="&#58969;" d="M512 864a480 480 0 1 1 480-480 480 480 0 0 1-480 480z m0-891.42857156a411.42857156 411.42857156 0 1 0 411.42857156 411.42857156 411.42857156 411.42857156 0 0 0-411.42857156-411.42857156zM512 589.7142853099999H443.42857156v-257.14285687L594.28571469 219.42857156000002l41.14285687 54.85714313L512 366.85714313000005V589.7142853099999z"  horiz-adv-x="1024" />

    
    <glyph glyph-name="add" unicode="&#58970;" d="M512 864a480 480 0 1 1 480-480 480 480 0 0 1-480 480z m0-891.42857156a411.42857156 411.42857156 0 1 0 411.42857156 411.42857156 411.42857156 411.42857156 0 0 0-411.42857156-411.42857156zM546.28571469 624h-68.57142938v-205.71428531h-205.71428531v-68.57142938h205.71428531v-205.71428531h68.57142938v205.71428531h205.71428531v68.57142938h-205.71428531v205.71428531z"  horiz-adv-x="1024" />

    
    <glyph glyph-name="security-information" unicode="&#58973;" d="M411.99999969 291.6h280.00000031V553.99999969H332V244.00000031000002l70.99999969 42z m15.6 172.39999969l48.6-60 124.8 83.00000062 22.2-33.40000031-155.19999938-103.2-71.4 88.99999969zM512 864a480 480 0 1 1 480-480A480 480 0 0 1 512 864z m220.00000031-612.40000031H423.2L291.99999969 174v420h440.00000062z"  horiz-adv-x="1024" />

    
    <glyph glyph-name="menu-fire" unicode="&#58974;" d="M512.53751082 376.79999999999995h240.00000028v-277.2h-240.00000028zM917.53751082 654V834L677.53751139 802.79999971V773.99999971H287.53751082A27.60000029 27.60000029 0 0 0 257.5375111 804.59999971H197.53751082A87.59999971 87.59999971 0 0 1 287.53751082 714.00000029h165.00000057v-72.60000029l-240.00000029-98.39999971V-66h540v110.99999971h-299.99999971V432.6h299.99999971V543.00000029l-240.00000028 98.39999971V714.00000029H677.53751139v-28.8z"  horiz-adv-x="1024" />

    
    <glyph glyph-name="menu-produce" unicode="&#58975;" d="M729.48296297-82.79999999999995a40.8 40.8 0 0 1 48-8.4 286.2 286.2 0 0 1 76.2 46.8 60 60 0 0 1 16.2 51 144 144 0 0 0 12 81 103.8 103.8 0 0 0 60 51 51 51 0 0 1 31.8 38.4 367.8 367.8 0 0 1 0 93.6 51 51 0 0 1-29.4 38.4 103.8 103.8 0 0 0-60 51 144 144 0 0 0-14.4 84 60 60 0 0 1-16.2 51 286.2 286.2 0 0 1-76.2 46.8 40.8 40.8 0 0 1-48-8.4 105 105 0 0 0-144 0 40.8 40.8 0 0 1-48 8.4 286.2 286.2 0 0 1-76.2-46.8 48 48 0 0 1-16.2-51 115.2 115.2 0 0 0-72-132 39.6 39.6 0 0 1-31.8-38.4 186 186 0 0 1-4.2-46.8 186 186 0 0 1 4.2-46.8 39.6 39.6 0 0 1 31.8-38.4 103.8 103.8 0 0 0 60-51 144 144 0 0 0 12-81 60 60 0 0 1 16.2-51 286.2 286.2 0 0 1 76.2-46.8 40.8 40.8 0 0 1 48 8.4 97.2 97.2 0 0 0 144 0z m-172.2 306.6a100.2 100.2 0 1 0 100.2-100.2 98.4 98.4 0 0 0-100.2 100.2z m7.8 0M277.08296297 168.60000000000002a254.4 254.4 0 0 0-4.2 55.8 254.4 254.4 0 0 0 4.2 55.8 104.4 104.4 0 0 0 77.4 90.6 52.2 52.2 0 0 1 27.6 60 112.2 112.2 0 0 0 38.4 114.6 340.2 340.2 0 0 0 89.4 55.2 98.4 98.4 0 0 0 44.4 10.2 105.6 105.6 0 0 0 76.8-33 39 39 0 0 1 25.2-8.4V744L350.88296297 864 44.28296297 744v-247.8A391.2 391.2 0 0 1 284.28296297 144a100.2 100.2 0 0 0-7.2 24.6z"  horiz-adv-x="1024" />

    
    <glyph glyph-name="information-management2" unicode="&#58976;" d="M702.2 534H303.2l208.2-173.59999969 190.8 173.59999969zM732.00000031 264.40000031V507l-118.2-107.59999969L732.00000031 264.40000031zM512.6 307.60000031000004l-75 62.4-118.99999969-136.00000031h386.79999938l-121.2 138.6-71.59999969-64.99999969zM291.99999969 491.20000031v-226.8l114.80000062 131.19999938L291.99999969 491.20000031zM512 864a480 480 0 1 1 480-480A480 480 0 0 1 512 864z m259.99999969-670.00000031H252.00000031v380.00000062h519.99999938z"  horiz-adv-x="1024" />

    
    <glyph glyph-name="case-review" unicode="&#58978;" d="M422 334.00000031h180v-40.00000031h-180zM582.00000031 481.39999969V594h-140.00000062v-112.60000031L512 504l70.00000031-22.60000031zM621.99999969 426.6L512 462l-109.99999969-35.59999969V594h-80.00000062v-420h380.00000062v420h-80.00000062z m20.00000062-172.60000031h-260.00000062v120h260.00000062zM512 864a480 480 0 1 1 480-480A480 480 0 0 1 512 864z m229.99999969-730.00000031h-459.99999938v500.00000062h459.99999938z"  horiz-adv-x="1024" />

    
    <glyph glyph-name="security-check" unicode="&#58979;" d="M330.39999969 531.79999969v-145.39999969c0-96 60-180 158.4-217.39999969l2.60000062-1.2a41.80000031 41.80000031 0 0 1 41.19999938 0l2.60000062 1.2c97.60000031 37.99999969 158.4 121.39999969 158.4 217.39999969v145.2L512 604.00000031z m283.60000031-54a131.4 131.4 0 0 0-4.00000031-171.39999938l26.20000031-32.00000062-31.00000031-25.39999969-26.19999938 31.99999969a130.2 130.2 0 0 0-66.6-18.39999938h-13.40000062a131.80000031 131.80000031 0 1 0 115.00000031 215.19999938zM512 864a480 480 0 1 1 480-480A480 480 0 0 1 512 864z m221.59999969-477.6c0-112.39999969-70.00000031-209.80000031-182.59999969-254.20000031a81.19999969 81.19999969 0 0 0-78.40000031 0c-112.60000031 44.4-182.59999969 141.79999969-182.59999969 254.20000031v172.39999969L512 647.4l221.59999969-88.60000031zM441.00000031 336.40000031a91.60000031 91.60000031 0 1 1 12.79999969 129 91.2 91.2 0 0 1-12.79999969-129z"  horiz-adv-x="1024" />

    
    <glyph glyph-name="org-guard" unicode="&#58980;" d="M376.14152188 363.75288844l41.38735125-16.79486719 112.16571937-48.58515187A327.49990781 327.49990781 0 0 1 638.26141156 444.12832311H425.32649001q-19.79395031-34.18955063-49.18496814-80.37543467zM511.70009187 864L117.6205325 706.24821281v-315.50357437a510.44399531 510.44399531 0 0 1 346.69404094-473.25536157 89.97250219 89.97250219 0 0 1 94.77103594 0 510.44399531 510.44399531 0 0 1 346.69404187 473.25536157V706.24821281zM260.97671937 638.46892781h263.31952219Q500.90339094 679.25646188 477.51054125 712.24638l28.19138344 14.99541657q21.59340094-31.79028375 48.58515094-74.37726844l-25.79211657-14.39560032h233.92850531v-99.56956875h-32.39010092V607.8782775H293.96663657v-68.97891844h-32.98991719zM795.41338156 444.12832311h-119.96333625a369.48707531 369.48707531 0 0 0-114.56498625-160.7508703q126.56131969-55.78295156 191.94133875-86.37360187l-19.19413406-31.19046751q-130.16022 59.98166812-202.13822156 95.3708522a754.56938438 754.56938438 0 0 0-262.11988969-100.76920219 334.09789125 334.09789125 0 0 1-16.79486719 34.18955062 637.005315 637.005315 0 0 1 244.12538907 83.37451875L447.51970719 300.17232l-115.16480344 53.38368469q32.98991719 49.18496812 59.98166812 90.57231844H227.98680125v30.59065125h179.94500437q29.39101781 52.18405125 56.38276782 106.16755218l31.1904675-13.19596687q-31.79028375-59.98166812-52.18405125-92.97158531h352.09239187z"  horiz-adv-x="1024" />

    
    <glyph glyph-name="name1" unicode="&#59829;" d="M535.78096437 589.89309l-125.16297187-62.58148594zM952.57366344-47.186440309999966L960.08344156 676.25554125l-544.45893094 187.74445875v-287.24902219L129.62711844 481.00130344v-528.18774375H32v-48.81355969h1001.30378062v48.81355969zM465.06388531 795.7861800000001L908.14080875 641.8357237499999l-7.50977906-688.39635H557.05866969v192.75097781h158.95697531V243.81747094000002H557.05866969V363.34810969h158.95697531V463.47848719H557.05866969V623.6870925000001l-91.99478438-30.66492844zM178.44067813 50.44067813000004h195.25423687v95.74967343H178.44067813V243.81747094000002h195.25423687V341.44458937H178.44067813V445.95567188l329.80443281 110.14341562v-603.28552781H178.44067813z"  horiz-adv-x="1080" />

    
    <glyph glyph-name="shorthand" unicode="&#58983;" d="M981.57811484 339.20764687999997V834H101.74950547v-385.62953203H62v-514.37046797h949.241925V339.20764687999997zM161.07712578 774.67237969H922.25049453v-435.46473282H638.07119316L573.99736309 448.37046797h-415.29334219zM951.91430469-6.672379689999957H121.32762031V389.04284766h418.25972285l46.86882012-80.0922876 17.20500996-29.0705335H951.91430469zM239.98286094 670.25576836h619.38035596v-98.48385H239.98286094z"  horiz-adv-x="1080" />

    
    <glyph glyph-name="agencies" unicode="&#58984;" d="M990.02233438 382.31635781A474.36835312 474.36835312 0 0 1 966.95103781 525.80856469h3.37628719l-21.3831525 48.39345A478.87006875 478.87006875 0 0 1 511.71497937 860.62371281h-10.69157625v3.37628719l-56.27145375-7.87800375h-13.50514875A475.49378156 475.49378156 0 0 1 89.67907813 601.77502688l-7.31528907-15.75600751-19.69500843-41.64087562a474.36835312 474.36835312 0 0 1 117.60733781-506.44308094l38.26458844-36.57644437v3.37628718a473.80563844 473.80563844 0 0 1 461.98863281-69.21388781l12.37972031 5.06443031a467.61577875 467.61577875 0 0 1 65.27488594 33.76287188l14.63057719 9.00343312A474.36835312 474.36835312 0 0 1 990.02233438 382.31635781z m-117.04462407 217.770525a631.9284225 631.9284225 0 0 1-404.02903594-94.53604125l-11.25428999 6.18985969c-17.44415062 10.12886156-35.45101594 19.69500844-56.27145375 28.69844156l-11.25429094 6.18985969c0 11.81700563 0 24.196725 3.37628719 36.01372969s0 16.88143594 2.8135725 25.32215437c3.37628719 18.56958 7.31528906 37.13915906 12.37972031 56.27145375 0 4.50171656 0 9.56614687 3.37628719 14.06786344a588.59940375 588.59940375 0 0 0 26.44758281 65.27488594c0 6.18985969 6.18985969 11.81700563 9.00343219 18.00686531s12.94243406 26.44758281 20.25772406 39.39001688a388.27302937 388.27302937 0 0 0 43.89173344 2.8135725 422.59861594 422.59861594 0 0 0 361.26273093-203.70266157z m-180.06865031-598.72826437l-7.31528906-3.37628813a591.41297625 591.41297625 0 0 0-281.35726782 386.02217157l9.00343219 7.87800374a578.47054219 578.47054219 0 0 0 46.70530688 38.2645875l9.56614687 7.31528907a588.59940375 588.59940375 0 0 0 246.46896657-423.72404438l-6.75257438-3.93900187-16.31872125-8.4407175z m-296.55056063 787.80034875l-5.06443031-11.81700563c0-5.627145-5.06443125-11.81700563-7.31528906-18.00686531q-11.25429094-27.57301219-20.25772312-56.27145281c0-5.06443125-3.37628719-10.12886156-4.50171657-14.63057813a643.74542812 643.74542812 0 0 1-16.31872125-72.02746031v-16.31872219c0-5.627145-3.37628719-20.25772312-3.93900187-30.94929937l-13.50514875 3.93900187-17.44415063 5.06443125Q283.25287812 582.08001844 258.49343844 588.83259281h-12.37971938c-18.56958 3.37628719-36.57644438 6.18985969-56.27145375 8.4407175h-41.64087562a419.78504344 419.78504344 0 0 0 247.594395 190.19751281zM89.67907813 426.77080594v14.06786343c0 4.50171656 2.8135725 20.25772312 5.06443125 29.82387094s0 10.69157625 4.50171562 16.31872125 4.50171656 18.00686531 7.31528906 26.44758281l6.18985969 17.44415063c0 6.18985969 4.50171656 10.69157625 6.75257438 16.31872219h74.84103375c12.37971937 0 24.196725-3.37628719 36.57644437-5.62714594l27.57301219-10.69157625 32.07472875-5.06443031 22.50858094-7.31528907 20.82043781-7.31528906v-74.27831812c0-6.18985969 0-21.3831525 3.93900187-32.07472875a643.18271344 643.18271344 0 0 1-159.24821343-284.733555l-3.93900188 5.06443125a420.91047187 420.91047187 0 0 0-28.69844062 47.83073531l-2.8135725 4.50171656a416.40875625 416.40875625 0 0 0-25.88486907 56.27145281L112.18765906 244.45129687999997a421.47318656 421.47318656 0 0 0-15.75600656 59.64774093v11.25429094A424.28675906 424.28675906 0 0 0 89.67907813 382.31635781a416.97147 416.97147 0 0 0 0 44.45444813z m140.67863343-358.44915844a589.16211844 589.16211844 0 0 0 127.73619938 267.85211906 645.99628594 645.99628594 0 0 1 259.41140062-361.82544656 416.40875625 416.40875625 0 0 0-387.1476 93.9733275z m534.57880875-20.82043781A642.05728406 642.05728406 0 0 1 518.46755375 469.53711094a575.094255 575.094255 0 0 0 383.77131281 69.7766025A417.53418469 417.53418469 0 0 0 764.93652031 47.501209689999996z"  horiz-adv-x="1024" />

    
    <glyph glyph-name="type" unicode="&#58985;" d="M784.13991875 329.35153945l89.42475322 90.47065693-18.3033123 18.30331231L494.94758838 796.8704244099999a124.46252138 124.46252138 0 0 1-52.29517676 36.08367188H150.84532285v-273.50377647a52.29517763 52.29517763 0 0 1 0-13.07379462v-165.77571182a97.2690293 97.2690293 0 0 1 36.60662373-65.89192325L569.20674043-66l302.78907598 306.44973809zM203.14049961 781.70482237h226.43811738a109.81987207 109.81987207 0 0 0 28.2393958-21.96397442l342.01045898-340.44160342L569.20674043 187.63160947999995 223.01266748 532.2568277299999A65.89192324 65.89192324 0 0 0 203.14049961 558.92736797z m366.06624081-773.44567032L223.01266748 352.88436943A65.89192324 65.89192324 0 0 0 203.14049961 379.55490967000003V477.86984268l366.06624081-366.06623995 176.75769903 178.84950557 52.29517676-52.29517676zM261.71109864 688.09645518a30.8541542 30.8541542 0 1 1-30.85415509 30.85415508 30.8541542 30.8541542 0 0 1 30.85415508-30.85415508z"  horiz-adv-x="1024" />

    
    <glyph glyph-name="special" unicode="&#58986;" d="M1152 832H320V896H0v-1024h320v64h832zM64-64V832h192v-896z m1024 64H320V768h768zM416 640H960v-192H416zM416 320H640v-192H416zM736 320H960v-192h-224z"  horiz-adv-x="1152" />

    
    <glyph glyph-name="zip-code-2" unicode="&#58987;" d="M0 896v-1024h1170.285714V896z m100.937143-73.142857l247.222857-302.08L73.142857 80.45714299999997V822.857143z m297.691428-359.862857L585.142857 237.71428600000002l186.514286 225.28L1097.142857-54.85714299999995H73.142857z m423.497143 57.782857L1069.348571 822.857143H1097.142857v-742.4z"  horiz-adv-x="1170" />

    
    <glyph glyph-name="address-2" unicode="&#58988;" d="M511.742142 895.996444A440.887358 440.887358 0 0 1 69.077012 458.072039c0-230.517718 364.443179-524.442623 405.924517-557.035103l36.740613-29.036936 36.740613 29.036936c41.481337 32.592479 405.924516 326.517385 405.924516 557.035103A440.887358 440.887358 0 0 1 511.742142 895.996444z m0-948.144856C379.001862 52.14752299999998 128.336066 293.33187 128.336066 458.072039a383.406076 383.406076 0 0 0 766.812152 0c0-164.740169-250.665796-405.924516-383.406076-510.220451zM511.742142 453.331315m-183.110476 0a183.110475 183.110475 0 1 1 366.220951 0 183.110475 183.110475 0 1 1-366.220951 0Z"  horiz-adv-x="1024" />

    
    <glyph glyph-name="telephone-2" unicode="&#58989;" d="M992.889257 158.00069599999995a436.027349 436.027349 0 0 1-119.555886 87.589071l-15.983407 10.229381a138.735975 138.735975 0 0 1-133.621285-4.475354 352.913632 352.913632 0 0 1-44.75354-47.310886l-5.11469-6.393363c0-3.196681-11.508053-12.147389-40.278187-5.754026-3.836018 0-41.556859 12.786726-191.800886 169.424116A965.397796 965.397796 0 0 0 316.471463 511.553663v27.491461a255.734516 255.734516 0 0 1 33.884823 30.688142l16.622744 16.622743A127.867258 127.867258 0 0 1 383.601773 730.84601 383.601773 383.601773 0 0 1 255.734516 875.975348a105.490488 105.490488 0 0 1-127.867258-3.196681A210.980975 210.980975 0 0 1 18.540752 761.534152v-7.672035a222.489029 222.489029 0 0 1 0-172.620798 1048.511514 1048.511514 0 0 1 259.570534-416.847261 1328.540809 1328.540809 0 0 1 368.257702-260.849206 553.02589 553.02589 0 0 1 160.473409-31.327478 168.145444 168.145444 0 0 1 115.719868 38.360178 544.714518 544.714518 0 0 1 69.048319 70.326991l7.032699 7.672036a144.490001 144.490001 0 0 1-5.754026 169.424117z m-327.34018-191.800887A1301.049348 1301.049348 0 0 0 319.668145 211.065608a982.659876 982.659876 0 0 0-242.94779 390.634472 161.752081 161.752081 0 0 0-3.836018 127.867258l3.196681 8.950708a104.211815 104.211815 0 0 0 38.360178 49.228894C150.883364 724.452648 199.472922 639.420921 255.734516 550.553177a136.17863 136.17863 0 0 1 0-46.671549c0-49.228894 135.539293-184.128851 140.653983-191.800887C545.993191 159.27936799999998 595.222085 134.34525299999996 618.877528 127.95189000000005a124.03124 124.03124 0 0 1 59.458275 0c77.999027-53.064912 157.276727-104.211815 226.325046-147.047347l-25.573452-23.655442c-47.950222-44.75354-168.78478-7.032699-214.177656 7.032699z"  horiz-adv-x="1024" />

    
    <glyph glyph-name="equip" unicode="&#58990;" d="M793.25 834v-900h112.5V721.5l-112.5 112.5zM118.25-66h618.75V834H118.25zM455.75 496.5h168.75v-112.5H455.75z m0-281.25h168.75v-112.5H455.75zM230.75 496.5h168.75v-112.5H230.75z m0-281.25h168.75v-112.5H230.75z"  horiz-adv-x="1024" />

    
    <glyph glyph-name="information-query" unicode="&#58991;" d="M573.013333 466.773333a111.36 111.36 0 1 1 78.933334-32.426666 110.933333 110.933333 0 0 1-78.933334 32.426666zM512 896a512 512 0 1 1 512-512A512 512 0 0 1 512 896zM269.653333 658.773333h441.173334v-133.12h-42.666667V616.106667H312.32v-322.56h89.6v-42.666667h-132.266667z m87.893334-112.213333v42.666667h265.386666v-42.666667z m60.16-92.16a174.506667 174.506667 0 0 1-17.92-42.666667h-42.666667v42.666667z m238.506666-345.173333H290.986667v42.666666h365.226666zM725.333333 174.506667l-59.733333 58.453333a154.026667 154.026667 0 1 0 30.293333 30.293333l58.453334-58.453333z"  horiz-adv-x="1024" />

    
    <glyph glyph-name="hidden-trouble" unicode="&#58992;" d="M597.333333 661.333333l-55.04-95.146666 185.173334-320.853334h110.08L597.333333 661.333333zM512 896a512 512 0 1 1 512-512A512 512 0 0 1 512 896z m264.533333-736H148.053333l314.453334 544.426667 55.04-95.573334L597.333333 747.093333l314.453334-544.426666h-159.573334zM221.866667 202.66666699999996h480.853333l-240.213333 416.426666z m253.866666 68.266666a17.066667 17.066667 0 0 0-12.373333-5.546666 19.2 19.2 0 0 0-14.08 5.546666 18.346667 18.346667 0 0 0 0 26.026667 18.346667 18.346667 0 0 0 13.226667 5.12 18.773333 18.773333 0 0 0 18.773333-18.346667 17.493333 17.493333 0 0 0-5.546667-12.8z m0 61.866667h-23.466666l-3.413334 161.706667h29.866667z"  horiz-adv-x="1024" />

    
    <glyph glyph-name="qualified-1" unicode="&#58993;" d="M512 834a450 450 0 1 1 450-450A450 450 0 0 1 512 834zM428.72631612 218.96842118999996L266.48947373 374.52631612000005l40.97368389 42.6315788 124.34210595-119.22631611 286.38947286 234.42631611 37.51578984-45.80526357z"  horiz-adv-x="1024" />

    
    <glyph glyph-name="qualified-2" unicode="&#58994;" d="M512 834a450 450 0 1 1 450-450A450 450 0 0 1 512 834z m0-840.78947373A390.78947373 390.78947373 0 1 0 902.78947373 384 391.21578984 391.21578984 0 0 0 512-6.789473730000054zM431.85263135 297.97894746L307.51052627 417.20526357l-41.02105254-42.7263161 162.23684239-155.51052628 327.0315788 267.63157881-37.51578984 45.85263135-286.38947373-234.47368389z"  horiz-adv-x="1024" />

    
    <glyph glyph-name="bullet" unicode="&#58995;" d="M964.746881 835.772997C825.36622 975.845628 606.703758 827.648759 606.703758 827.648759l-453.624658-455.136739 348.150518-348.214589L954.918347 479.434171S1112.277409 687.665828 964.746881 835.772997zM93.849047 315.851224l25.88736 25.88736L469.737303-8.263593000000014l-25.88736-25.88736zM57.920436 351.778554L0 293.858117l421.858117-421.858117 57.920437 57.920436L93.838796 315.84738000000004 57.920436 351.778554z"  horiz-adv-x="1027" />

    
    <glyph glyph-name="banknote" unicode="&#58996;" d="M0 868.045389v-968.103374c523.269472-96.80088 1046.557858 96.819794 1569.846244 0V868.045389C1046.557858 964.865183 523.269472 771.168853 0 868.045389z m783.334362-845.957988c-201.432078-20.35126-364.715002 136.179433-364.715001 338.368064 0 200.599871 163.282923 370.710679 364.715001 391.080853S1148.068278 615.621678 1148.068278 413.357392c0-200.599871-163.301837-370.918731-364.733916-391.269991zM981.059334 604.7651510000001l-100.829522-7.9438-88.875994-98.522038-2.818158-0.226965-92.110256 84.261024-106.446923-8.378818 101.453678-106.900855-118.060004-9.305595v-83.409902l146.657684 11.556338v-63.266695l-146.657684-11.556338v-84.223197l146.657684 11.556338v-115.639036l128.141064 10.099975v115.639036l141.834663 11.178061V343.905881l-141.834663-11.178062v63.266695l141.834663 11.178062v83.409903l-114.825742-9.059715 105.87951 123.242387z"  horiz-adv-x="1569" />

    
    <glyph glyph-name="self-service-equipment" unicode="&#58997;" d="M1013.84876 896H44.634851L0 544.94052a74.246887 74.246887 0 0 1 74.234134-74.246886h543.575969a74.246887 74.246887 0 0 1 74.234133 73.621998l18.019727 171.448839 294.857826 0.08927V449.651489l-14.678489-0.306067 8.506127-71.976886-32.902262 274.721132-209.146159-0.063764-0.90545-108.24589a138.010959 138.010959 0 0 0-137.985453-136.850453H143.099332c-19.397031 0-39.929062-1.823652-70.063963 8.92697-51.801933 18.593604-60.39733 62.399522-60.39733 62.399522V392.263824c7.651689-27.240012 46.2162-33.820464 64.554748-35.414566L8.467869-17.22905300000002c0-61.21351 59.415363-110.770947 132.693036-110.770947H913.101524c73.290425 0 132.705789 49.595696 132.705789 110.770947l-47.185414 394.533825c35.707881-1.708877 57.183621 32.404902 57.183621 32.404902V715.879247h2.550562zM334.480821 193.511209l-17.777424-162.419847c-3.405001-22.38119-23.477932-39.763276-45.910132-39.763276H137.896184c-24.689449 0-42.441367 20.901863-38.692039 45.527548L130.078709 198.54857000000004c3.213709 19.588323 22.062369 34.789678 43.142772 34.789678h124.87556c23.273887 0 39.91631-18.338547 36.38378-39.827039z"  horiz-adv-x="1058" />

    
    <glyph glyph-name="bank" unicode="&#58998;" d="M59.87168-128h904.25664V776.2566400000001H59.87168z m662.04504 565.1604h177.62184v-500.57064H721.91672z m-355.24368 0h290.65392v-500.57064H366.67304z m-242.2116 0H302.08328v-500.57064H124.46144zM156.478786 255.047553h34.9693v-140.899029H156.478786zM751.385798 255.047553h34.9693v-140.899029h-34.9693zM59.87168 896h904.25664v-81.014734H59.87168z"  horiz-adv-x="1024" />

    
    <glyph glyph-name="network-services" unicode="&#58999;" d="M997.537549 651.827648c2.96719 63.926257-13.501591 119.530337-49.160538 162.563365-52.391088 63.206406-141.424334 91.105012-250.718745 78.744648l2.721387-23.965762A519.363529 519.363529 0 0 1 582.60505 890.730306h-29.952814C270.97991 890.730306 43.261274 663.064342 43.261274 381.392016c0-3.142763 0-6.285526 0.087786-9.428289a153.222863 153.222863 0 0 1-22.824535-35.11467c-35.11467-108.293643-24.913858-203.665087 28.811587-268.311195 41.119279-49.652144 103.412704-77.21716 180.331388-81.255346a507.406984 507.406984 0 0 1 323.054965-115.281463h23.965763c23.98332 0 53.936133 5.987051 77.919453 11.974103C888.260696-68.07576200000005 1062.043199 135.76489800000002 1062.043199 381.392016c0 119.038732-9.340502 197.18643-64.50565 270.435632zM103.377589 113.30906700000003c-29.636782 35.658948-39.504004 87.312627-29.25052 148.622841C113.12191 151.56650000000002 194.377257 165.61236799999995 194.377257 165.61236799999995c-79.956104 89.542409-86.785907 196.642153-86.785908 196.642153s-4.143531 32.761987-3.845056 41.24218A464.198382 464.198382 0 0 0 151.13354 585.2326760000001l263.676058-251.789742 137.842638 137.842637v155.821349L468.780846 710.995867l125.850978 125.850978A452.979245 452.979245 0 0 0 653.132865 826.768935s153.398437-43.033028 198.011625-154.680122c0 0 5.425217 64.10183-32.621529 108.100512A376.043003 376.043003 0 0 1 772.522743 824.732284c53.163611-4.494678 95.2661-23.316141 121.707447-55.182704 42.453636-51.179632 44.525402-132.909026 5.79392-230.141548C858.553685 435.064789 775.928866 328.05283199999997 667.529879 238.10660399999995q-5.021398-4.161088-10.060353-8.23439-4.74048-3.634368-9.568747-7.268737a1231.963087 1231.963087 0 0 0-122.901346-81.88741l0.368704-0.491606c-66.173596-36.870404-133.207501-62.609457-196.85284-75.075164-102.727968-20.120706-182.666514-3.019862-225.137708 48.15977z m220.678144-120.267746c5.934379 0.965653 11.886316 2.001536 17.92604 3.177878 60.748379 11.903873 123.9899 34.517721 186.704701 66.314055v-130.609016a445.482263 445.482263 0 0 0-204.630741 61.117083z m648.09391 226.489623v11.99166L864.277376 339.429985h-0.702293c43.893338 56.604848 78.481288 115.527265 101.744757 173.975633q9.410732 23.597058 16.064961 46.404037c21.174146-50.916272 20.735213-100.673759 20.735213-172.448145 0-59.905627-11.99166-113.841761-29.970371-167.777894z"  horiz-adv-x="1062" />

    
    <glyph glyph-name="centre-operations-base" unicode="&#59000;" d="M1170.284424 281.599549h-241.428305v-58.571364c0-29.257111-29.257111-58.571364-58.571364-58.571364s-58.571364 29.257111-58.571364 58.571364v58.571364H358.399605v-58.571364c0-29.257111-29.257111-58.571364-58.571364-58.571364s-58.571364 29.257111-58.571364 58.571364v58.571364H0v-357.828177a51.785657 51.785657 0 0 1 51.771372-51.771372h1067.213109a51.785657 51.785657 0 0 1 51.785657 51.771372V108.57116799999994a53.385655 53.385655 0 0 1-0.485714 6.971421zM1118.984481 711.927646h-62.328503A133.928424 133.928424 0 0 1 1038.570284 713.14193H885.027596V764.341874A131.114141 131.114141 0 0 1 753.370598 895.998871H416.913826a131.114141 131.114141 0 0 1-131.656998-131.656997v-58.571364H51.771372A51.785657 51.785657 0 0 1 0 654.056281v-299.313956c80.457054 0 160.914108 7.314278 241.428305 7.314278 0 29.257111 29.257111 58.571364 58.571364 58.571364s58.571364-21.942833 58.571364-58.571364h453.313786c0 29.257111 29.257111 58.571364 58.571365 58.571364s58.571364-21.942833 58.571364-58.571364h241.428305v106.328454a53.214227 53.214227 0 0 1 0.485714 6.971421V660.1562739999999a51.785657 51.785657 0 0 1-51.957086 51.771372z m-314.413939-6.099994H365.713883v58.571364c0 29.257111 21.942833 51.199944 51.199943 51.199944h336.456772c29.257111 0 51.199944-21.942833 51.199944-51.199944z"  horiz-adv-x="1170" />

    
    <glyph glyph-name="financial-security-business-premises" unicode="&#59001;" d="M512 896L0 499.95h93.0875V-128h837.825V499.95h93.0875z m203.9375-557.575l-141.8375-1.7875v-63.2625l141.8375 1.7875v-84.225l-141.8375-1.7875V73.5l-128.1375-1.6125v115.65l-146.6625-1.85v84.225l146.6625 1.85v63.2625l-146.6625-1.8375v83.4l118.0625 1.4875-101.45 113.625 106.4375 1.325 92.1125-90.35h2.825l88.875 92.625 100.825 1.25-105.875-116.25 114.825 1.4625z"  horiz-adv-x="1024" />

    
    <glyph glyph-name="excellent" unicode="&#59002;" d="M734.293 463.36H554.667l7.25333 26.88c26.88 99.84 13.2267 142.507 2.56 159.147a38.8267 38.8267 0 0 1-20.9067 17.0667 16.64 16.64 0 0 1-6.4 0 35.84 35.84 0 0 1 0-7.68 22.1867 22.1867 0 0 0 0-7.25333 249.173 249.173 0 0 0-92.5867-170.667 12.3733 12.3733 0 0 1-3.84-8.96v-268.8h193.28a46.5067 46.5067 0 0 1 42.6667 25.6 868.693 868.693 0 0 1 44.8 110.507 933.973 933.973 0 0 1 27.7333 109.227 11.9467 11.9467 0 0 1-2.56 10.6667 12.3733 12.3733 0 0 1-12.3733 4.26667ZM311.893 460.373a17.4933 17.4933 0 0 1-2.98667-10.6667l17.0667-236.373c0-6.82667 4.69333-11.0933 8.10667-11.0933h37.12v260.267H317.013a6.4 6.4 0 0 1-5.12-2.13333ZM512 896a512 512 0 1 1 512-512A512 512 0 0 1 512 896Zm276.48-455.68c-6.4-30.72-17.0667-76.3733-29.0133-114.347a936.107 936.107 0 0 0-47.7867-116.053 85.3333 85.3333 0 0 0-79.36-49.4933h-298.667a52.0533 52.0533 0 0 0-50.3467 50.7733l-17.0667 235.52a57.1733 57.1733 0 0 0 11.9467 40.5333 49.92 49.92 0 0 0 38.4 18.7733h61.44A81.92 81.92 0 0 1 414.72 512a213.333 213.333 0 0 1 78.08 140.8v7.25333a47.7867 47.7867 0 0 0 52.48 48.64 73.3867 73.3867 0 0 0 52.0533-33.7067c24.32-35.84 28.16-92.5867 11.0933-170.667h124.16a55.04 55.04 0 0 0 42.6667-20.0533 56.7467 56.7467 0 0 0 13.2267-43.9467Z"  horiz-adv-x="1024" />

    
    <glyph glyph-name="fire-extinguisher-list" unicode="&#59012;" d="M519.23 177c-120.14 0-217.84-93-217.84-208.55a22.45 22.45 0 0 1 0.66-6.6h435c0 2 0.66 4.62 0.66 6.6C737.07 83.30999999999995 639.37 177 519.23 177z m0 0M658.52 336.78999999999996v-28.38H585.9c4.62 9.9 6.6 20.46 6.6 32.34a79.87 79.87 0 0 1-159.74 0 81.15 81.15 0 0 1 8.58-35.65c-29.71-5.94-58.75-18.48-82.52-37.62-64.69-51.48-113.53-127.4-115.52-130.7-7.26-11.89-4-27.07 7.27-34.33a23.8 23.8 0 0 1 13.2-4c7.92 0 16.5 4 21.12 11.22 0.66 0.66 46.21 71.95 105 118.16a139.11 139.11 0 0 0 84.49 30.37v-23.11h-21.82A14.65 14.65 0 0 1 438 220.61v-19.8a14.66 14.66 0 0 1 14.52-14.53h129.42a14.67 14.67 0 0 1 14.53 14.53v19.8a14.66 14.66 0 0 1-14.53 14.52h-21.78v23.11h98.36v-32.35L912 159.22000000000003V405.44z m-145.89 34.33a30.37 30.37 0 1 0 0-60.73 29.87 29.87 0 0 0-30.36 30.36c0.66 16.5 13.86 30.37 30.36 30.37z m0 0M709.68 830.9h-597.3a42.68 42.68 0 0 1-42.68-42.68v-789.9a42.68 42.68 0 0 1 42.68-42.68H248v3.58a251.35 251.35 0 0 0 13 80h-0.62a74.4 74.4 0 0 0-72.67 59 75.58 75.58 0 0 0 9.54 55.4c3.76 6 55.88 87.08 127 143.68a231.08 231.08 0 0 0 55.03 32.7v1.54a129.93 129.93 0 0 0 253 41.67l120.12 32.53V788.22a42.68 42.68 0 0 1-42.72 42.68z m-20.41-306.61H133.92v56.62h555.35z m0 143H133.92v56.63h555.35z"  horiz-adv-x="1024" />

    
    <glyph glyph-name="fire-water-supply" unicode="&#59013;" d="M834.25 651.33H703.08v71.09h122.16a31.19 31.19 0 0 1 31 31c0 17-13 31-30 31H519.85a31 31 0 0 1 0-62.08H642v-71.09H418.73A260.87 260.87 0 0 1 157.4 390v-218.26c-26-3-47.06-26-47.06-53.07v-82.11a52.77 52.77 0 0 1 53.07-53.06h306.38a52.77 52.77 0 0 1 53.07 53.06v82.11a53.45 53.45 0 0 1-49.07 53.07v75.09a22.66 22.66 0 0 0 23 23h314.43A98.7 98.7 0 0 1 910.34 369V576.24c-1 41.05-34 75.09-76.09 75.09z m14-269.33"  horiz-adv-x="1024" />

    
    <glyph glyph-name="fire-pool" unicode="&#59016;" d="M780.41 687v-101a60.41 60.41 0 0 0-16.81-2.68c-24.11 0-52.85 19.66-61.83 27.19l-17.36 14.71-17.35-14.71c-8.32-7.05-37.55-27.19-61.83-27.19-24.1 0-52.84 19.66-61.82 27.19l-17.2 14.84-17.45-14.79c-9-7.58-37.78-27.24-61.88-27.24s-52.88 19.63-61.82 27.16l-17.36 14.71-17.35-14.71c-8.32-7.05-37.54-27.19-61.82-27.19-15.17 0-32.17 7.79-44.94 15.45V687H64.65v-610.69h894.7V687z m0-413.87H243.59V538.9100000000001c13.67-5.38 29.06-9.3 44.94-9.3 31.52 0 61.16 15.43 79.17 27.19 18-11.76 47.66-27.19 79.18-27.19S508 545 526.06 556.8c18-11.76 47.65-27.19 79.17-27.19S666.4 545 684.41 556.8c18-11.76 47.66-27.19 79.19-27.19a105.43 105.43 0 0 1 16.81 1.4zM521.159383 407.950924m-11.063378-26.709357a28.91 28.91 0 1 1 22.126756 53.418714 28.91 28.91 0 1 1-22.126756-53.418714ZM322.29 364.59000000000003m-28.91 0a28.91 28.91 0 1 1 57.82 0 28.91 28.91 0 1 1-57.82 0ZM688.702464 436.84605m-20.442457-20.442457a28.91 28.91 0 1 1 40.884915 40.884914 28.91 28.91 0 1 1-40.884915-40.884914ZM387.088865 465.735654m-28.136921-6.640916a28.91 28.91 0 1 1 56.273842 13.281833 28.91 28.91 0 1 1-56.273842-13.281833ZM647.327657 335.685657m-20.442457-20.442457a28.91 28.91 0 1 1 40.884914 40.884914 28.91 28.91 0 1 1-40.884914-40.884914Z"  horiz-adv-x="1024" />

    
    <glyph glyph-name="gas-masks" unicode="&#59017;" d="M928.59 227.5l-49.74 28.72a35.93 35.93 0 0 1-49.07-13.15l-14.91-25.84-50.58 29.2c-4.92 21.58-15.57 41.47-32.19 55.51l-1.16 1a512.28 512.28 0 0 0-62.44 63.56C770.56 351 848 401.33 847.66 503.24q-0.1 41.67 0 83.24C848 688.13 769.54 803.34 666.48 819.81a939.26 939.26 0 0 1-298.11 0.57C265.28 804.44 183.91 688.44 183.72 586.5q-0.12-41.65 0-83.24c0.18-100.47 78.69-150 179.17-136.67a512.12 512.12 0 0 0-62.5-63.66l-1.16-1c-16.42-13.87-27-33.44-32-54.72l-52-30-14.91 25.84a35.93 35.93 0 0 1-49.07 13.15l-49.69-28.7a35.92 35.92 0 0 1-13.15-49.07L218-46a35.92 35.92 0 0 1 49.06-13.14l49.75 28.72A35.92 35.92 0 0 1 330 18.600000000000023L313 48l8.49 4.9A232.4 232.4 0 0 0 515.66 413c128.35 0 232.4-104 232.4-232.39a231.28 231.28 0 0 0-38.56-128.24l7.64-4.41-16.95-29.36a35.91 35.91 0 0 1 13.15-49.06l49.74-28.72A35.91 35.91 0 0 1 812.14-46l129.6 224.47a35.92 35.92 0 0 1-13.15 49.03z m-293 212.12A42.85 42.85 0 0 0 604.14 461a840.77 840.77 0 0 0-40.34 82.77c-20.75 48.82-75.52 48.82-96.27 0a842.19 842.19 0 0 0-40.24-82.56 43.22 43.22 0 0 0-31.73-21.63h-0.21C311.15 428 244.69 464 244.54 538.24q-0.1 30.19 0 60.45c0.14 73.84 66.31 157.85 150.23 169.73 32.35 5 57.54 2.13 76.55-19.56q5-5.56 9.18-11.14c19.23-25.26 51.1-25.26 70.32 0q4.24 5.58 9.18 11.14c19 21.69 45.66 21.69 76.55 19.56l2.3-0.32c84.18-12 148.25-95.62 148-169.43q-0.09-30.18 0-60.44c0.26-74.49-63.81-111-148-99.07zM515.66 361.47a180.89 180.89 0 1 1 180.89-180.88 180.88 180.88 0 0 1-180.89 180.88z m0-306.3a125.42 125.42 0 1 0 125.42 125.42 125.56 125.56 0 0 0-125.42-125.42zM515.66 180.59000000000003m-104.39 0a104.39 104.39 0 1 1 208.78 0 104.39 104.39 0 1 1-208.78 0Z"  horiz-adv-x="1024" />

    
    <glyph glyph-name="fire-alarm" unicode="&#59018;" d="M462.39 396.9c-76.27-23-90.24-88.09-85.32-129.45-54.41 67.55-52.18 145.25-52.18 257.19C150.39 455.15 191 254.79999999999995 185.76 194c-43.9 37.93-52.19 128.59-52.19 128.59C87.24 297.37 64 230.12 64 175.58000000000004c0-131.91 101.23-238.83 226.11-238.83s226.11 106.92 226.11 238.83c0 78.42-54.49 114.55-53.83 221.32zM569.3 123.62A299.9 299.9 0 0 0 514.94-5H877a64.55 64.55 0 0 1 64.31 64.3v64.32zM255.73 553.6800000000001c1.91 1.21 3.85 2.4 5.8 3.57l2.36 1.4c1.06 0.62 2.13 1.24 3.21 1.84q2.41 1.38 4.88 2.71l2.57 1.37q2.25 1.19 4.53 2.33c0.7 0.36 1.4 0.72 2.11 1.07 1.9 0.94 3.81 1.85 5.74 2.76l1.76 0.82q3.21 1.49 6.49 2.9l1.39 0.6q3.51 1.5 7.08 2.93l78.66 31.32v-97.43c0-35.78 0.14-65.61 1.76-91.23 17.61 13.65 38.34 24.18 61.77 31.24l74.45 22.42-0.48-77.75c-0.28-45.83 11.61-73.83 25.38-106.25l1.17-2.76 0.49-1.17c0.24-0.55 0.47-1.1 0.7-1.65l0.6-1.42 0.61-1.44 0.63-1.52 0.61-1.34c0.22-0.53 0.45-1.06 0.67-1.6s0.35-0.85 0.52-1.28 0.47-1.13 0.7-1.71c0.17-0.4 0.33-0.8 0.49-1.2 0.24-0.59 0.48-1.19 0.73-1.79 0.14-0.37 0.29-0.74 0.44-1.11l0.76-1.92c0.13-0.32 0.25-0.65 0.38-1 0.27-0.69 0.54-1.37 0.8-2.06l0.3-0.76q2.61-6.81 5-14c0.06-0.16 0.11-0.32 0.16-0.48 0.28-0.84 0.56-1.68 0.83-2.52 0.08-0.23 0.15-0.46 0.23-0.69l0.78-2.47c0.08-0.25 0.16-0.5 0.23-0.76 0.26-0.82 0.51-1.65 0.76-2.48 0.08-0.26 0.15-0.51 0.23-0.76 0.25-0.85 0.49-1.7 0.74-2.55l0.19-0.7c0.25-0.89 0.5-1.78 0.74-2.67l0.15-0.55 0.75-2.86 0.06-0.23c1.64-6.47 3.06-13.17 4.19-20.16 0-0.16 0-0.31 0.07-0.48 0.17-1 0.32-2 0.47-3 0-0.23 0.06-0.46 0.1-0.69 0.14-1 0.27-2 0.4-3 0-0.27 0.06-0.54 0.1-0.8 0.12-1 0.24-2 0.35-3 0-0.28 0.05-0.55 0.08-0.83 0.11-1 0.21-2 0.31-3l0.06-0.77c0.1-1.05 0.19-2.1 0.27-3.17v-0.58c0.09-1.13 0.16-2.28 0.23-3.43H877V509.59C877 686.5 732.25 831.25 555.48 831.25c-166.88 0-305.12-128.8-320.27-291.9q9.21 7.11 19.15 13.47z"  horiz-adv-x="1024" />

    
    <glyph glyph-name="fault-repair" unicode="&#59019;" d="M927 106.23000000000002L881.38 142a14.74 14.74 0 0 0-5.53 13.43l1.92 15.37a163.54 163.54 0 0 1 0 48.26l-1.92 15.39a14.73 14.73 0 0 0 5.54 13.44l45.71 35.77a16.83 16.83 0 0 1 4.21 21.68l-22 38.18a16.86 16.86 0 0 1-20.9 7.2L834.58 329a14.76 14.76 0 0 0-14.49 2l-12.41 9.52a186.62 186.62 0 0 1-41.49 24.21l-14.37 6a14.72 14.72 0 0 0-8.9 11.53l-8.09 57.14a16.85 16.85 0 0 1-16.68 14.49h-44.39a16.85 16.85 0 0 1-16.68-14.49L649 382.24a14.73 14.73 0 0 0-8.91-11.54l-14.37-6a181.68 181.68 0 0 1-41.28-24.05L572 331a14.73 14.73 0 0 0-14.56-2l-53.91 21.76a16.86 16.86 0 0 1-20.9-7.2l-22.05-38.21a16.84 16.84 0 0 1 4.19-21.68l45.61-35.77a14.77 14.77 0 0 0 5.53-13.43L514 219a163.4 163.4 0 0 1 0-48.24l1.92-15.38a14.77 14.77 0 0 0-5.54-13.38l-45.61-35.77a16.85 16.85 0 0 1-4.19-21.68l22.05-38.21a16.86 16.86 0 0 1 20.9-7.2l53.81 21.72a14.76 14.76 0 0 0 14.49-2l12.4-9.52a186.72 186.72 0 0 1 41.49-24.21l14.37-6a14.75 14.75 0 0 0 8.91-11.51l8.08-57.14A16.85 16.85 0 0 1 673.76-64H718a16.85 16.85 0 0 1 16.68 14.49l8.09 57.14a14.75 14.75 0 0 0 8.91 11.54l14.37 6a181.25 181.25 0 0 1 41.28 24.05l12.43 9.66a14.76 14.76 0 0 0 14.56 2l53.91-21.76a16.86 16.86 0 0 1 20.9 7.2l22 38.21a16.85 16.85 0 0 1-4.13 21.7z m-234.82-3.4a96.3 96.3 0 1 0 96.29 96.3 96.3 96.3 0 0 0-96.3-96.3zM405.06 293.37l60.22 104.32a15.06 15.06 0 0 0 18.36 6.47l75-30.26a222.43 222.43 0 0 0 50.88 29.66l11.29 79.78A15.19 15.19 0 0 0 635.67 496h120.42a15.48 15.48 0 0 0 15-12.64l7.91-55.3c53.34 69.05 65.73 159.52 37.18 238.53-7.58 21-34.29 27.08-50.06 11.31L631.66 543.47a63 63 0 0 0-89.12 0 63 63 0 0 0 0 89.12L677 767c15.77 15.77 9.67 42.48-11.3 50.06C577 849.11 473.92 829.6 402.85 758.54a250.71 250.71 0 0 1-65.48-240.26L127.7 308.61a127.27 127.27 0 0 1 0-180 127.25 127.25 0 0 1 180 0l125.9 125.95-24.92 19.54a15.09 15.09 0 0 0-3.62 19.27z"  horiz-adv-x="1024" />

    
    <glyph glyph-name="replace" unicode="&#59020;" d="M956.67 212.73000000000002L856.41 339a27.07 27.07 0 0 1-42.64 0l-99.72-126.27c-7.75-9.41-0.51-23.81 11.67-23.81H765c-1.1-73.65-1.1-167.27-130.16-242-3.32-2.21-1.66-7.2 2.21-6.64 247 38.21 266.95 203.82 267.5 248.12h41c12.23 0.52 18.87 14.92 11.12 24.33zM446.54 252a283.2 283.2 0 0 0 41.77 92c24.32 35 56.62 64.62 96 87.89 45.34 26.79 100.47 45.34 163.86 55.14l0.57 0.09a55.42 55.42 0 0 0 7.71 0.55 53.44 53.44 0 0 0 51.44-38.19 54.36 54.36 0 0 0 2.31-13.69 297.46 297.46 0 0 1 2.72 192c-9.24 28.36-45.13 37-66.23 15.92L601.91 499a76 76 0 0 0-107.42 0 76 76 0 0 0 0 107.42l144.79 144.75c21.05 21.05 12.51 57-15.79 66.19-102.66 33.52-220 9.49-301.6-72.1a296 296 0 0 1-70.48-306.66L101.84 289a129.2 129.2 0 0 1 0-182.71 129.2 129.2 0 0 1 182.72 0l149.63 149.65q6.13-2.12 12.35-3.94zM668.25 188.60000000000002h-39.32c1.11 73.65 1.11 167.27 130.17 242 3.32 2.22 1.66 7.2-2.22 6.65-247-38.21-267-204.38-267.53-248.12h-41c-12.18 0-19.38-14.4-11.63-23.81L537 39a27.09 27.09 0 0 1 42.64 0l100.27 126.3c7.16 8.91 0.52 23.3-11.66 23.3z"  horiz-adv-x="1024" />

    
    <glyph glyph-name="delivery-repair" unicode="&#59021;" d="M737.55 360.37V401.8c0 22 26.59 33 42.15 17.48l86.3-86.19a326 326 0 0 1 20 249.81c-10.15 31.13-49.54 40.63-72.69 17.48L654.38 441.46a83.36 83.36 0 0 0-117.9 0 83.36 83.36 0 0 0 0 117.9l158.91 158.91c23.1 23.1 13.73 62.5-17.33 72.64-112.67 36.79-241.46 10.42-331-79.13a324.87 324.87 0 0 1-77.37-336.57L105.53 211a141.8 141.8 0 0 1 0-200.53 141.8 141.8 0 0 1 200.54 0l60.21 60.21V311a24.7 24.7 0 0 0 24.7 24.7h321.87a24.7 24.7 0 0 1 24.7 24.67zM952.56 188.95000000000005L818 323.27a10.47 10.47 0 0 1-17.86-7.41v-24.92H431.46a21.71 21.71 0 0 1-21.71-21.72v-196.44a21.72 21.72 0 0 1 21.71-21.72h368.69v-24.92a10.46 10.46 0 0 1 17.86-7.4L952.56 153a25.37 25.37 0 0 1 0 35.95z"  horiz-adv-x="1024" />

    
    <glyph glyph-name="fire-extinguisher" unicode="&#59022;" d="M922.66 555.24V832l-340.73-59.15v-53.42H372.7c-73.62 0-161.62 111.5-161.62 111.5l-54.44-55.76a902 902 0 0 1 87-61.69c-28.65-18.76-65.16-45.12-86.89-70.14C99.76 577.76 101 484 101.45 448.7c0-2.57 0.34-340.59 0.34-343.33l54.84 0.07c0 2.72-0.32 341.15-0.36 344-0.41 32.1-1.39 107.29 41.41 156.58 23.14 26.65 73.64 59.76 102 76.87 24.91-11.42 49.31-19.19 69.59-19.19h92.83v-23.83l-162.5-91.7a55.76 55.76 0 0 1-34.08-51.71v-501.64C265.52-36 289.88-64 320-64h332.12c30.07 0 54.45 28 54.45 58.81V496.46a56 56 0 0 1-28.05 48.76l0.27 0.51-162.88 92.51V663.7h66v-49.32zM652.12 162H323.24V329.26h328.88z m-15.34 563.42"  horiz-adv-x="1024" />

    
    <glyph glyph-name="message-site" unicode="&#59023;" d="M826.59 293.37a16.31 16.31 0 0 1-15.37 10.86h-82.59v-155.14l125.53 0.57a16.31 16.31 0 0 1 15.32 21.68q-21.33 61.06-42.89 122.03zM944.47-43.360000000000014q-27.15 77-53.9 154.2a16.32 16.32 0 0 1-15.46 10.94l-150.74-0.54a89.74 89.74 0 0 0-19-33c-15.92-17.53-38.09-27.58-60.82-27.58h-167q-1.36-54.53-2.76-109A16.3 16.3 0 0 1 491-65.08000000000004h438.1a16.29 16.29 0 0 1 15.37 21.72zM863.75 602.54V826.8199999999999L599.69 781a14.56 14.56 0 0 1-12.07-14.35v-31H418.05c-59.67 0-131 90.36-131 90.36L243 780.77a730.32 730.32 0 0 1 70.47-50c-23.23-15.21-52.82-36.57-70.43-56.85-46.14-53.15-45.15-129.14-44.77-157.74 0-1.84 0.22-215.81 0.27-267.24a11 11 0 0 1 11-11h22.42a11 11 0 0 1 11 11c-0.05 51.46-0.25 265.75-0.28 267.79-0.34 26-1.13 86.95 33.56 126.9 18.76 21.65 59.65 48.49 82.65 62.37 20.19-9.25 40-15.55 56.4-15.55h75.21v-19.31L358.81 596.8a45.18 45.18 0 0 1-27.62-41.91v-406.54c0-25 19.74-47.66 44.11-47.66h269.2c24.37 0 44.12 22.7 44.12 47.66V554.89a45.34 45.34 0 0 1-22.72 39.52l0.21 0.41-132 75v20.61h53.51v-27.72a14.56 14.56 0 0 1 12.07-14.35zM644.5 283.87H378V419.39h266.5z m-12.43 456.58M375.3 60.690000000000055c-22.74 0-44.9 10.06-60.82 27.59a89.27 89.27 0 0 0-23.29 60.07v49.21l-127.67 0.34C135 117.55999999999995 106.66 37.15999999999997 79.18-43.539999999999964a16.3 16.3 0 0 1 15.44-21.54H395A16.31 16.31 0 0 1 411.3-50q4.24 55.37 8.46 110.72z"  horiz-adv-x="1024" />

    


  </font>
</defs>
</svg>
