<svg id="图层_2" data-name="图层 2" xmlns="http://www.w3.org/2000/svg" viewBox="0 0 21 23.4"><defs><style>.cls-1{fill:none;stroke:#ccc;stroke-miterlimit:10;stroke-width:2px;}.cls-2{fill:#ccc;}</style></defs><title>密码</title><rect class="cls-1" x="1" y="6.23" width="19" height="16.17" rx="2" ry="2"/><path class="cls-1" d="M349.17,179v-2.26a3.2,3.2,0,0,1,3.19-3.19h0a3.2,3.2,0,0,1,3.19,3.19V179" transform="translate(-341.86 -172.56)"/><path class="cls-2" d="M355.13,186.06a2.68,2.68,0,0,0-5.36,0,2.15,2.15,0,0,0,1.23,2.24v2.86a1.52,1.52,0,0,0,3,0v-2.86A2.47,2.47,0,0,0,355.13,186.06Z" transform="translate(-341.86 -172.56)"/></svg>