<svg id="图层_2" data-name="图层 2" xmlns="http://www.w3.org/2000/svg" viewBox="0 0 24.6 21.64"><defs><style>.cls-1{fill:#00a144;}</style></defs><title>笑脸</title><path class="cls-1" d="M174,135.89a3.28,3.28,0,1,0-3.24-3.28,3.26,3.26,0,0,0,3.24,3.28h0Z" transform="translate(-154.52 -129.33)"/><path class="cls-1" d="M159.7,135.89a3.28,3.28,0,1,0-3.24-3.28,3.26,3.26,0,0,0,3.24,3.28h0Z" transform="translate(-154.52 -129.33)"/><path class="cls-1" d="M178.11,140.73a1.92,1.92,0,0,0-2.63.79,9.59,9.59,0,0,1-17.32.09,1.93,1.93,0,0,0-2.64-.76,2,2,0,0,0-.75,2.67,13.44,13.44,0,0,0,24.13-.12,2,2,0,0,0-.79-2.67h0Z" transform="translate(-154.52 -129.33)"/><path class="cls-1" d="M178.11,140.73" transform="translate(-154.52 -129.33)"/></svg>